<svg width="32" height="32" viewBox="0 0 32 32" fill="none" xmlns="http://www.w3.org/2000/svg">
<path fill-rule="evenodd" clip-rule="evenodd" d="M21.3212 20.7659H23.226V8.74352L19.5426 13.2415C20.7445 14.8853 21.4562 16.9198 21.4562 19.1199C21.4562 19.6805 21.41 20.2304 21.3212 20.7659ZM20.8768 22.4806H23.232V29L29.9713 20.7703H24.9143V4L18.4088 11.9443C16.6649 10.2686 14.3125 9.23978 11.728 9.23978C6.36394 9.23978 2 13.6719 2 19.1199C2 24.5678 6.36394 29 11.728 29C15.9309 29 19.5199 26.2791 20.8768 22.4806ZM19.7054 20.7658L19.7054 20.7659H13.3809L18.4912 14.5254L18.4916 14.5249C19.3605 15.8398 19.8678 17.4208 19.8678 19.1199C19.8678 19.6833 19.812 20.2338 19.7058 20.7658H19.7054ZM17.3911 13.187C15.9249 11.743 13.9269 10.8529 11.728 10.8529C7.23976 10.8529 3.58833 14.5615 3.58833 19.1199C3.58833 23.6783 7.23976 27.3868 11.728 27.3868C15.0388 27.3868 17.8942 25.369 19.1646 22.4806H9.78063L17.3897 13.1886L17.3911 13.187ZM24.9204 22.4851H26.371L24.9204 24.2564V22.4851Z" fill="#353F56"/>
</svg>
