<svg width="192" height="66" viewBox="0 0 192 66" fill="none" xmlns="http://www.w3.org/2000/svg">
<rect width="191.921" height="66" rx="6" fill="#3B3F54"/>
<path d="M30.0094 50.6965C29.5052 50.7966 29.2145 50.4859 28.9867 50.1209C28.7132 49.6825 28.6646 49.1755 28.6618 48.6704C28.6551 47.4524 28.6599 46.2344 28.6599 45.0164C28.6599 36.5439 28.6599 28.0724 28.6599 19.5999C28.6599 19.1348 28.6875 18.6678 28.9 18.2475C29.1221 17.811 29.427 17.4546 29.9836 17.4651C30.1113 17.4908 30.1761 17.5994 30.259 17.6824C35.3807 22.804 40.5032 27.9246 45.6239 33.0472C45.9327 33.356 46.2396 33.6667 46.5598 33.964C46.576 33.9993 46.5817 34.0365 46.576 34.0746C46.5198 34.2156 46.4025 34.3062 46.3006 34.4091C45.8059 34.9066 45.3094 35.4031 44.8119 35.8987C40.0105 40.6868 35.2911 45.5577 30.4659 50.322C30.3267 50.4592 30.2133 50.6336 30.0103 50.6946L30.0094 50.6965Z" fill="#3BCBFE"/>
<path d="M46.5138 33.9799C46.3404 33.9818 46.2746 33.8283 46.1774 33.7311C40.8747 28.4332 35.5758 23.1324 30.2769 17.8316C30.1664 17.7211 30.033 17.6267 29.9834 17.4656C30.4285 17.2426 30.823 17.4504 31.1957 17.6429C32.0639 18.0908 32.9168 18.5683 33.7746 19.0353C39.6196 22.2203 45.4645 25.4063 51.3076 28.5943C51.4305 28.661 51.584 28.6953 51.6536 28.8401C51.6536 29.0231 51.5116 29.1156 51.4029 29.2252C49.9028 30.7291 48.4008 32.231 46.8969 33.7311C46.7883 33.8388 46.6997 33.9875 46.5129 33.9799H46.5138Z" fill="#48FE48"/>
<path d="M30.0098 50.6966C32.5439 48.1358 35.0771 45.575 37.6121 43.0151C40.4741 40.1265 43.337 37.2388 46.2009 34.352C46.3029 34.2491 46.4125 34.1538 46.5183 34.0547C46.666 34.0633 46.7489 34.1738 46.8414 34.2653C48.3929 35.814 49.9416 37.3646 51.4912 38.9142C51.5656 38.9886 51.6494 39.0562 51.6704 39.1687C50.8975 39.7005 50.0493 40.1017 49.2297 40.5515C43.3304 43.79 37.4253 47.0188 31.5203 50.2468C31.0524 50.5032 30.5883 50.8005 30.0098 50.6957V50.6966Z" fill="#FE3333"/>
<path d="M51.6696 39.1689C51.6248 39.1432 51.5705 39.125 51.5352 39.0898C49.8617 37.4124 48.1901 35.7332 46.5175 34.0549C46.5184 34.0301 46.5175 34.0044 46.5137 33.9796C48.2272 32.267 49.9408 30.5534 51.6544 28.8408C51.7878 28.8132 51.8764 28.9094 51.9774 28.9638C54.2866 30.2237 56.5949 31.4845 58.9022 32.7464C59.3911 33.0142 59.8781 33.3306 59.8829 33.9443C59.8876 34.5762 59.4388 34.9679 58.9203 35.2519C56.592 36.5299 54.259 37.8022 51.9269 39.0736C51.8478 39.1165 51.7563 39.1365 51.6706 39.1679L51.6696 39.1689Z" fill="#FED300"/>
<path d="M76.9943 37.8418H80.9265C80.7836 38.9911 80.3042 39.9442 79.4998 40.678C78.6288 41.4719 77.5204 41.8741 76.2052 41.8741C74.708 41.8741 73.4595 41.3651 72.496 40.3625C71.5296 39.3571 71.0397 38.0476 71.0397 36.4713C71.0397 34.792 71.5229 33.4178 72.476 32.3866C73.4242 31.3611 74.6784 30.8417 76.2052 30.8417C77.1401 30.8417 77.9702 31.0428 78.6716 31.4383C79.3731 31.8338 79.9678 32.438 80.4414 33.2338L80.5949 33.4931L82.3999 32.0463L82.2675 31.8462C81.6003 30.8388 80.7464 30.0736 79.7305 29.5723C78.7203 29.0729 77.5147 28.8203 76.1471 28.8203C75.1168 28.8203 74.1619 28.9785 73.3099 29.2911C72.4531 29.6056 71.6897 30.0764 71.0407 30.6921C70.2706 31.4231 69.6874 32.2808 69.3052 33.2434C68.9249 34.2012 68.7324 35.2876 68.7324 36.4713C68.7324 37.9123 69.0565 39.2199 69.694 40.3559C70.3345 41.4957 71.2551 42.402 72.4331 43.0501C72.9487 43.3246 73.5205 43.5362 74.1304 43.6801C74.7385 43.823 75.3846 43.8955 76.0518 43.8955C78.2561 43.8955 80.024 43.2312 81.3068 41.9227C82.5886 40.6141 83.2386 38.8129 83.2386 36.5666V35.8404H76.9924V37.8427L76.9943 37.8418Z" fill="white"/>
<path d="M92.2805 35.4691C91.7973 34.9993 91.2522 34.6371 90.6584 34.3922C90.0637 34.1463 89.4252 34.0215 88.7628 34.0215C88.1005 34.0215 87.4429 34.1444 86.8453 34.3865C86.2478 34.6295 85.7055 34.9879 85.2347 35.452C84.7629 35.9171 84.3989 36.4546 84.1539 37.0493C83.908 37.644 83.7832 38.2844 83.7832 38.9544C83.7832 39.6244 83.908 40.261 84.1539 40.8462C84.3989 41.4304 84.762 41.9679 85.2347 42.4473C85.7045 42.9105 86.2468 43.2717 86.8482 43.5214C87.4495 43.7701 88.0938 43.8969 88.7628 43.8969C89.4319 43.8969 90.0485 43.7691 90.6498 43.5166C91.2493 43.265 91.7982 42.8962 92.2805 42.4206C92.7522 41.9622 93.1163 41.4313 93.3631 40.8424C93.609 40.2534 93.7339 39.6187 93.7339 38.9554C93.7339 38.292 93.609 37.6554 93.3631 37.0598C93.1172 36.4641 92.7522 35.9295 92.2805 35.4701V35.4691ZM91.6172 38.9535C91.6172 39.8074 91.3436 40.5088 90.7804 41.0978C90.221 41.6839 89.5605 41.9689 88.7628 41.9689C87.9651 41.9689 87.2913 41.6839 86.7252 41.0968C86.1563 40.5079 85.8799 39.8064 85.8799 38.9535C85.8799 38.1005 86.1553 37.399 86.7205 36.8091C87.2837 36.223 87.9518 35.938 88.7619 35.938C89.5719 35.938 90.22 36.223 90.7795 36.8091C91.3427 37.3981 91.6162 38.1005 91.6162 38.9535H91.6172Z" fill="white"/>
<path d="M103.054 35.4691C102.571 34.9993 102.026 34.6371 101.432 34.3922C100.837 34.1463 100.199 34.0215 99.5363 34.0215C98.8739 34.0215 98.2163 34.1444 97.6187 34.3865C97.0212 34.6295 96.4789 34.9879 96.0081 35.452C95.5364 35.9171 95.1723 36.4546 94.9274 37.0493C94.6815 37.644 94.5566 38.2844 94.5566 38.9544C94.5566 39.6244 94.6815 40.261 94.9274 40.8462C95.1723 41.4304 95.5354 41.9679 96.0081 42.4473C96.478 42.9105 97.0202 43.2717 97.6216 43.5214C98.223 43.7701 98.8672 43.8969 99.5363 43.8969C100.205 43.8969 100.822 43.7691 101.423 43.5166C102.023 43.265 102.572 42.8962 103.054 42.4206C103.526 41.9622 103.89 41.4313 104.137 40.8424C104.382 40.2534 104.507 39.6187 104.507 38.9554C104.507 38.292 104.382 37.6554 104.137 37.0598C103.891 36.4641 103.526 35.9295 103.054 35.4701V35.4691ZM102.391 38.9535C102.391 39.8074 102.117 40.5088 101.554 41.0978C100.994 41.6839 100.334 41.9689 99.5363 41.9689C98.7386 41.9689 98.0648 41.6839 97.4987 41.0968C96.9297 40.5079 96.6533 39.8064 96.6533 38.9535C96.6533 38.1005 96.9288 37.399 97.4939 36.8091C98.0572 36.223 98.7252 35.938 99.5353 35.938C100.345 35.938 100.993 36.223 101.553 36.8091C102.116 37.3981 102.39 38.1005 102.39 38.9535H102.391Z" fill="white"/>
<path d="M112.626 35.3176C112.369 35.006 112.071 34.7477 111.734 34.5466C111.152 34.1978 110.47 34.0215 109.705 34.0215C108.395 34.0215 107.331 34.4704 106.544 35.3548C105.765 36.2306 105.369 37.4229 105.369 38.8963C105.369 40.3697 105.776 41.5524 106.578 42.4444C107.387 43.3441 108.465 43.8006 109.78 43.8006C110.501 43.8006 111.163 43.6205 111.745 43.265C112.089 43.0553 112.396 42.7894 112.663 42.4711V43.0744C112.663 43.5852 112.636 43.9788 112.583 44.2447C112.532 44.4973 112.448 44.7193 112.329 44.9128C112.134 45.2473 111.857 45.4922 111.485 45.6638C111.102 45.8401 110.626 45.9287 110.073 45.9287C109.58 45.9287 108.936 45.902 108.331 45.4541C107.852 45.0996 107.62 44.6393 107.513 44.3657C107.236 44.4534 106.959 44.5402 106.682 44.6278C106.326 44.7498 105.969 44.8718 105.612 44.9938C105.678 45.1577 105.744 45.3216 105.808 45.4856C105.9 45.6752 106.032 45.9106 106.218 46.1594C106.218 46.1594 106.474 46.5139 106.814 46.7922C107.594 47.4288 108.685 47.7509 110.053 47.7509C110.838 47.7509 111.546 47.6375 112.157 47.4126C112.777 47.1848 113.311 46.8332 113.742 46.3681C114.057 46.025 114.286 45.6323 114.424 45.1997C114.559 44.7717 114.626 44.0884 114.626 43.1116V34.3331H112.624V35.3176H112.626ZM111.935 36.7786C112.419 37.3199 112.664 38.0519 112.664 38.9535C112.664 39.855 112.433 40.5974 111.977 41.1035C111.524 41.6096 110.907 41.8545 110.093 41.8545C109.279 41.8545 108.608 41.6048 108.154 41.0902C107.697 40.5736 107.467 39.816 107.467 38.8391C107.467 37.9251 107.696 37.2103 108.147 36.7129C108.598 36.2163 109.217 35.9743 110.037 35.9743C110.858 35.9743 111.452 36.2373 111.935 36.7767V36.7786Z" fill="white"/>
<path d="M117.911 28.3184H115.87V43.526H117.911V28.3184Z" fill="white"/>
<path d="M126.61 39.7504C126.578 39.8056 126.492 39.9438 126.356 40.1058C126.294 40.1792 126.137 40.3527 125.841 40.5824C125.645 40.7348 125.427 40.9093 125.105 41.0455C124.384 41.3524 123.719 41.361 123.07 41.0703C122.448 40.792 121.98 40.2993 121.644 39.5674L127.962 36.8789L127.745 36.368C127.165 35.0042 126.33 34.0655 125.263 33.5766C124.188 33.0839 123.012 33.1029 121.767 33.6328C120.534 34.157 119.692 35.0204 119.263 36.1984C118.836 37.3706 118.902 38.6267 119.457 39.9343C120.036 41.2933 120.911 42.2397 122.059 42.7486C122.445 42.9192 122.839 43.0317 123.241 43.0841C124.389 43.2356 125.281 42.8839 125.726 42.6991C126.585 42.3445 127.196 41.8327 127.493 41.4944C127.769 41.179 127.976 40.8225 127.976 40.8225C128.066 40.6662 128.133 40.528 128.181 40.4213C127.702 40.1068 127.225 39.7932 126.747 39.4787C126.715 39.5521 126.669 39.6455 126.608 39.7494L126.61 39.7504ZM121.153 36.5072C121.399 35.9773 121.813 35.5942 122.42 35.3359C123.087 35.0519 123.687 34.9985 124.205 35.1777C124.653 35.333 125.018 35.6456 125.313 36.1298L121.005 37.9625C120.895 37.4364 120.943 36.958 121.153 36.5072Z" fill="white"/>
<path d="M140.274 29.8714C139.894 29.6065 139.442 29.4149 138.931 29.3005C138.427 29.1881 137.674 29.1328 136.629 29.1328H133.458V43.5256H135.593V37.3013H136.629C137.682 37.3013 138.437 37.246 138.936 37.1336C139.445 37.0192 139.896 36.8229 140.277 36.5513C140.755 36.2101 141.133 35.7383 141.401 35.1484C141.665 34.567 141.798 33.9152 141.798 33.2118C141.798 32.5085 141.665 31.8566 141.401 31.2752C141.133 30.6863 140.755 30.2145 140.274 29.8705V29.8714ZM135.593 31.1637H136.165C137.491 31.1637 138.395 31.3286 138.849 31.6545C139.283 31.9652 139.493 32.5066 139.493 33.3081C139.493 34.0495 139.291 34.547 138.873 34.8291C138.431 35.1293 137.519 35.2818 136.164 35.2818H135.592V31.1647L135.593 31.1637Z" fill="white"/>
<path d="M144.75 28.3184H142.71V43.526H144.75V28.3184Z" fill="white"/>
<path d="M161.603 34.334L159.112 40.1389L156.761 34.334H154.47L157.984 42.4081L155.511 47.7508H157.758L163.811 34.334H161.603Z" fill="white"/>
<path d="M154.349 43.2553C153.705 43.2553 153.062 43.2553 152.419 43.2553C152.419 43.0875 152.419 42.9198 152.419 42.7502C152.419 42.53 152.417 42.3108 152.414 42.0926C152.199 42.3204 152.067 42.4566 151.939 42.5986C151.074 43.5612 149.378 43.8395 148.005 43.2429C146.683 42.6673 146.049 41.5884 146.18 40.1389C146.284 38.9971 147.19 37.9859 148.442 37.6181C149.892 37.1911 150.508 37.2168 152.358 37.7829C152.496 36.9414 152.081 36.2543 151.194 35.9245C150.572 35.6929 149.979 35.6281 149.426 35.793C148.871 35.9588 148.506 36.3248 148.358 36.4706C148.239 36.5878 148.149 36.6965 148.088 36.7756C147.855 36.6784 147.613 36.5726 147.367 36.4573C147.017 36.2924 146.689 36.1237 146.384 35.955C146.59 35.631 146.964 35.1335 147.58 34.7113C148.555 34.0432 149.529 33.9822 149.955 33.9622C150.897 33.9174 151.842 34.1633 152.772 34.6818C153.739 35.2202 154.277 36.1618 154.323 37.2292C154.408 39.2134 154.348 41.2043 154.348 43.2562L154.349 43.2553ZM150.038 38.8303C149.248 38.9657 148.769 39.365 148.656 39.4631C148.414 39.6747 148.153 39.9044 148.093 40.2618C148.017 40.7192 148.251 41.2101 148.757 41.5331C150.02 42.3404 152.261 41.2644 152.386 39.771C152.405 39.548 152.209 39.3926 152.066 39.2497C151.411 38.5949 150.371 38.7731 150.037 38.8303H150.038Z" fill="white"/>
<path d="M72.6951 22.6878H74.9748V22.8727C74.9748 23.7428 74.728 24.4299 74.2352 24.9331C73.7425 25.4363 73.0687 25.688 72.2158 25.688C71.9565 25.688 71.7097 25.6603 71.4743 25.605C71.2389 25.5498 71.0216 25.4688 70.8234 25.363C70.3707 25.1142 70.0209 24.7702 69.7741 24.3308C69.5272 23.8915 69.4043 23.393 69.4043 22.8346C69.4043 22.3742 69.4777 21.9587 69.6254 21.587C69.7722 21.2163 69.9942 20.8894 70.2916 20.6073C70.5403 20.371 70.83 20.1918 71.1598 20.0717C71.4895 19.9507 71.8546 19.8906 72.2548 19.8906C72.7857 19.8906 73.246 19.9869 73.6358 20.1794C74.0256 20.3719 74.3486 20.6616 74.606 21.0495L74.0551 21.4908C73.8559 21.1563 73.6081 20.9056 73.3117 20.7379C73.0154 20.5701 72.6704 20.4863 72.2777 20.4863C71.6363 20.4863 71.115 20.7026 70.7147 21.1353C70.3144 21.568 70.1143 22.1341 70.1143 22.8336C70.1143 23.4931 70.3173 24.0335 70.7243 24.4566C71.1302 24.8798 71.6487 25.0904 72.2777 25.0904C72.8314 25.0904 73.2917 24.9227 73.6606 24.5862C74.0294 24.2508 74.2333 23.8133 74.2743 23.2749H72.697V22.6859L72.6951 22.6878Z" fill="white"/>
<path d="M75.9492 25.5413V20.0156H78.8627V20.616H76.6059V22.2009H78.8627V22.8128H76.6059V24.9304H78.8627V25.5423H75.9492V25.5413Z" fill="white"/>
<path d="M80.9419 25.5423V20.6437H79.3799V20.0176H83.1615V20.6437H81.6062V25.5423H80.9419Z" fill="white"/>
<path d="M86.1807 25.5413V20.0156H86.8373V25.5413H86.1807Z" fill="white"/>
<path d="M89.1402 25.5404V20.6418H87.5781V20.0156H91.3598V20.6418H89.8044V25.5404H89.1402Z" fill="white"/>
<path d="M100.024 22.7908C100.024 23.1863 99.9507 23.558 99.8049 23.9077C99.6591 24.2575 99.4465 24.5682 99.1664 24.8398C98.8871 25.1114 98.565 25.3211 98.2019 25.4678C97.8378 25.6156 97.4604 25.689 97.0706 25.689C96.6808 25.689 96.3044 25.6156 95.9432 25.4678C95.582 25.3211 95.2618 25.1114 94.9816 24.8398C94.6995 24.5653 94.485 24.2537 94.3373 23.9039C94.1896 23.5541 94.1162 23.1834 94.1162 22.7908C94.1162 22.3981 94.1896 22.0226 94.3373 21.6719C94.485 21.3212 94.6995 21.0086 94.9816 20.7341C95.2589 20.4644 95.5782 20.2576 95.9413 20.1118C96.3044 19.966 96.6799 19.8926 97.0706 19.8926C97.4614 19.8926 97.8416 19.966 98.2057 20.1118C98.5698 20.2576 98.89 20.4654 99.1673 20.7341C99.4465 21.0057 99.6591 21.3174 99.8058 21.6681C99.9517 22.0188 100.025 22.3933 100.025 22.7908H100.024ZM97.0706 25.0704C97.3727 25.0704 97.6606 25.0132 97.9341 24.8989C98.2076 24.7845 98.4535 24.6177 98.6727 24.3985C98.889 24.1822 99.0539 23.9373 99.1673 23.6628C99.2807 23.3883 99.337 23.0976 99.337 22.7908C99.337 22.4839 99.2798 22.1865 99.1654 21.9073C99.051 21.6281 98.8862 21.3812 98.6727 21.1677C98.4563 20.9514 98.2114 20.7865 97.9379 20.6731C97.6644 20.5597 97.3756 20.5035 97.0706 20.5035C96.7657 20.5035 96.4721 20.5597 96.1977 20.6731C95.9232 20.7865 95.6802 20.9514 95.4686 21.1677C95.2522 21.3869 95.0874 21.6347 94.9739 21.9111C94.8605 22.1875 94.8043 22.481 94.8043 22.7908C94.8043 23.1005 94.8605 23.3874 94.972 23.659C95.0845 23.9306 95.2494 24.1774 95.4686 24.3985C95.6906 24.6196 95.9365 24.7874 96.2072 24.9008C96.4778 25.0142 96.7657 25.0704 97.0706 25.0704Z" fill="white"/>
<path d="M101.097 25.5418V19.7969L105.139 24.2132V20.0161H105.766V25.7572L101.723 21.3904V25.5418H101.097Z" fill="white"/>
</svg>
