<svg width="25" height="25" viewBox="0 0 25 25" fill="none" xmlns="http://www.w3.org/2000/svg">
<path d="M23.9992 5.79282V22.8314C23.9992 23.2725 23.6416 23.63 23.2005 23.63H6.16196C5.72086 23.63 5.36328 23.2725 5.36328 22.8314V5.79282C5.36328 5.35172 5.72086 4.99414 6.16196 4.99414H23.2005C23.6416 4.99414 23.9992 5.35172 23.9992 5.79282Z" stroke="#3B3F54" stroke-linecap="round" stroke-linejoin="round"/>
<path d="M20.007 1H2.16978C1.72868 1 1.37109 1.35758 1.37109 1.79868V19.6359" stroke="#3B3F54" stroke-linecap="round" stroke-linejoin="round"/>
<path d="M13.2291 11.0437C12.6968 10.7244 12.0195 11.1078 12.0195 11.7286V16.8942C12.0195 17.5151 12.6968 17.8984 13.2291 17.5791L17.5338 14.9963C18.0508 14.6861 18.0508 13.9367 17.5338 13.6265L13.2291 11.0437Z" stroke="#3B3F54" stroke-linecap="round" stroke-linejoin="round"/>
</svg>
