<svg width="60" height="60" viewBox="0 0 60 60" fill="none" xmlns="http://www.w3.org/2000/svg">
<path d="M52.5 29.3753H7.5C5.1 29.3753 3.125 27.4003 3.125 25.0003V16.7003C3.125 15.0003 4.29994 13.2753 5.87494 12.6503L28.3749 3.65039C29.3249 3.27539 30.6751 3.27539 31.6251 3.65039L54.1251 12.6503C55.7001 13.2753 56.875 15.0253 56.875 16.7003V25.0003C56.875 27.4003 54.9 29.3753 52.5 29.3753ZM30 7.1004C29.9 7.1004 29.8001 7.10027 29.7501 7.12527L7.27493 16.1254C7.12493 16.2004 6.875 16.5253 6.875 16.7003V25.0003C6.875 25.3503 7.15 25.6253 7.5 25.6253H52.5C52.85 25.6253 53.125 25.3503 53.125 25.0003V16.7003C53.125 16.5253 52.9001 16.2004 52.7251 16.1254L30.2251 7.12527C30.1751 7.10027 30.1 7.1004 30 7.1004Z" fill="#688CBA"/>
<path d="M55 56.875H5C3.975 56.875 3.125 56.025 3.125 55V47.5C3.125 45.1 5.1 43.125 7.5 43.125H52.5C54.9 43.125 56.875 45.1 56.875 47.5V55C56.875 56.025 56.025 56.875 55 56.875ZM6.875 53.125H53.125V47.5C53.125 47.15 52.85 46.875 52.5 46.875H7.5C7.15 46.875 6.875 47.15 6.875 47.5V53.125Z" fill="#688CBA"/>
<path d="M10 46.875C8.975 46.875 8.125 46.025 8.125 45V27.5C8.125 26.475 8.975 25.625 10 25.625C11.025 25.625 11.875 26.475 11.875 27.5V45C11.875 46.025 11.025 46.875 10 46.875Z" fill="#688CBA"/>
<path d="M20 46.875C18.975 46.875 18.125 46.025 18.125 45V27.5C18.125 26.475 18.975 25.625 20 25.625C21.025 25.625 21.875 26.475 21.875 27.5V45C21.875 46.025 21.025 46.875 20 46.875Z" fill="#688CBA"/>
<path d="M30 46.875C28.975 46.875 28.125 46.025 28.125 45V27.5C28.125 26.475 28.975 25.625 30 25.625C31.025 25.625 31.875 26.475 31.875 27.5V45C31.875 46.025 31.025 46.875 30 46.875Z" fill="#688CBA"/>
<path d="M40 46.875C38.975 46.875 38.125 46.025 38.125 45V27.5C38.125 26.475 38.975 25.625 40 25.625C41.025 25.625 41.875 26.475 41.875 27.5V45C41.875 46.025 41.025 46.875 40 46.875Z" fill="#688CBA"/>
<path d="M50 46.875C48.975 46.875 48.125 46.025 48.125 45V27.5C48.125 26.475 48.975 25.625 50 25.625C51.025 25.625 51.875 26.475 51.875 27.5V45C51.875 46.025 51.025 46.875 50 46.875Z" fill="#688CBA"/>
<path d="M57.5 56.875H2.5C1.475 56.875 0.625 56.025 0.625 55C0.625 53.975 1.475 53.125 2.5 53.125H57.5C58.525 53.125 59.375 53.975 59.375 55C59.375 56.025 58.525 56.875 57.5 56.875Z" fill="#688CBA"/>
<path d="M30 23.125C26.9 23.125 24.375 20.6 24.375 17.5C24.375 14.4 26.9 11.875 30 11.875C33.1 11.875 35.625 14.4 35.625 17.5C35.625 20.6 33.1 23.125 30 23.125ZM30 15.625C28.975 15.625 28.125 16.475 28.125 17.5C28.125 18.525 28.975 19.375 30 19.375C31.025 19.375 31.875 18.525 31.875 17.5C31.875 16.475 31.025 15.625 30 15.625Z" fill="#688CBA"/>
</svg>
