<svg width="67" height="60" viewBox="0 0 67 60" fill="none" xmlns="http://www.w3.org/2000/svg">
<path d="M53.2092 60H50.2949C50.3082 56.9367 50.4049 53.8966 51.2784 50.8878C50.3727 50.6547 49.4835 50.4268 48.5952 50.1975C47.5519 49.9277 46.511 49.6505 45.4639 49.3943C45.3538 49.3674 45.1557 49.4189 45.092 49.5004C43.1125 52.0033 40.4277 53.4244 37.2673 54.102C36.379 54.2926 35.4702 54.3949 34.5095 54.5481V59.9963H31.6423V54.5249C30.9591 54.4353 30.2996 54.3733 29.6502 54.2589C26.206 53.6523 23.2374 52.2558 21.0928 49.5273C20.9591 49.3569 20.8491 49.333 20.64 49.3883C17.6502 50.1728 14.6572 50.9461 11.6659 51.7224C10.1431 52.1176 8.61636 52.4979 7.10142 52.9178C6.71384 53.0254 6.30975 53.195 6.0063 53.4401C4.77516 54.433 3.76337 55.5904 3.2217 57.0704C2.93632 57.8497 2.91746 58.6529 2.93161 59.4621C2.93475 59.6331 2.93161 59.8035 2.93161 59.9925H0C0.0723271 59.0362 0.0605346 58.0754 0.231918 57.1452C0.64151 54.9217 1.95047 53.1763 3.69025 51.7052C4.00158 51.4422 4.06447 51.224 3.93632 50.8505C3.14151 48.5381 2.80896 46.1614 2.94419 43.7309C3.06683 41.5186 3.78459 39.4453 4.68239 37.428C5.83884 34.8279 7.34749 32.4184 9.31605 30.298C9.8813 29.6891 10.1439 29.0884 10.2044 28.2613C10.5181 23.9809 11.8491 19.9441 13.6667 16.041C14.0417 15.2363 14.4513 14.4458 14.8506 13.6359C13.728 13.3647 13.0071 12.7446 12.9945 11.5887C12.9835 10.5607 13.5149 9.98836 14.7988 9.54307C13.5999 9.22852 12.9426 8.45149 12.9827 7.39652C13.022 6.36023 13.9332 5.48233 15.0346 5.46515C16.3695 5.44498 17.7052 5.45394 19.0409 5.46664C19.3231 5.46963 19.511 5.40164 19.7036 5.18497C21.9568 2.64393 24.8837 1.19223 28.25 0.472726C30.5794 -0.0248725 32.9395 -0.0764255 35.3121 0.0752449C37.3287 0.203754 39.2996 0.531003 41.1974 1.21091C43.471 2.02604 45.3538 3.32533 46.7666 5.22307C46.8585 5.34635 47.0771 5.44946 47.2383 5.4517C48.4427 5.46963 49.6471 5.45917 50.8515 5.45917C52.092 5.45917 53.004 6.16821 53.1518 7.27025C53.2807 8.23108 52.5881 9.29501 51.4175 9.5072C51.3947 9.51169 51.3743 9.52962 51.3522 9.54157C52.5889 9.9667 53.1675 10.6234 53.1651 11.6014C53.1628 12.578 52.5653 13.2265 51.2595 13.6524C51.5527 14.2725 51.8499 14.8896 52.1376 15.5105C53.0488 17.4785 53.618 19.5541 54.2658 21.6065C55.3192 24.9455 56.4623 28.2583 58.1361 31.3717C58.7988 32.6052 59.6557 33.7446 60.3837 34.9482C62.8185 38.9701 64.4914 43.2654 65.4175 47.8193C65.9938 50.6517 66.1235 53.5178 66.0716 56.3958C66.0519 57.503 66.0645 58.6118 66.0622 59.7191C66.0622 59.8028 66.0622 59.8864 66.0622 59.9903H63.2359C63.2296 59.8834 63.2186 59.7878 63.2186 59.6914C63.217 57.8124 63.2477 55.9325 63.2092 54.0542C63.1628 51.7538 62.8837 49.4742 62.3562 47.2261C61.5677 43.8684 60.3436 40.6594 58.6541 37.6178C57.7084 35.915 56.7461 34.2145 55.2988 32.8286C53.8931 31.483 52.2736 30.3899 50.5535 29.2527C50.7162 30.0231 50.8192 30.7261 51.0173 31.4038C51.6313 33.504 52.2807 35.5945 52.9175 37.688C53.6762 40.1842 54.2461 42.717 54.4238 45.3126C54.5166 46.6732 54.5763 48.0479 54.4733 49.4047C54.3955 50.4313 54.0441 51.4407 53.8027 52.4546C53.4206 54.0602 53.265 55.6905 53.2139 57.3297C53.1864 58.2091 53.2092 59.09 53.2092 59.9993V60ZM47.4261 28.4839C47.4261 27.9094 47.4348 27.4364 47.4199 26.9635C47.4167 26.8537 47.3625 26.7154 47.2815 26.6415C45.6329 25.133 44.265 23.4123 42.9867 21.6154C42.2933 20.6404 41.5724 19.6729 40.7579 18.7905C40.1565 18.139 39.3813 17.5883 38.3664 17.734C37.6871 17.8319 37.015 18.0097 36.3593 18.2092C34.978 18.6306 33.5952 19.0326 32.1313 19.0751C30.5102 19.1215 28.9073 19.0176 27.4442 18.272C26.6667 17.876 25.8451 17.7833 24.9937 17.7146C24.1628 17.6466 23.7029 18.0635 23.3758 18.7008C23.0771 19.2843 23.0299 19.9157 23.0197 20.5508C23.0032 21.6752 22.7312 22.7354 22.1478 23.7194C21.412 24.9611 20.3035 25.8323 19.0346 26.5399C18.7972 26.6721 18.6738 26.8088 18.6879 27.0905C18.7241 27.8085 18.6903 28.5303 18.7469 29.246C18.8656 30.7366 19.4584 31.9798 20.8884 32.7628C21.2948 32.9855 21.5212 33.3389 21.5794 33.7924C21.614 34.0621 21.6753 34.3318 21.754 34.5933C22.2021 36.0951 22.919 37.4863 23.7752 38.8087C25.1518 40.9358 26.8074 42.8284 29.0205 44.2248C29.5724 44.5729 30.0771 44.9682 30.5928 45.3582C32.4073 46.7285 33.7878 46.6978 35.5724 45.3365C36.0661 44.96 36.5472 44.5782 37.0802 44.2494C38.625 43.2968 39.8908 42.0603 40.9937 40.6744C42.6864 38.5487 44.0684 36.2744 44.5944 33.6086C44.6785 33.1835 44.9639 32.907 45.3452 32.7038C46.3743 32.1547 47.0307 31.3268 47.2556 30.2352C47.3806 29.6308 47.3782 29.0032 47.4246 28.4847L47.4261 28.4839ZM6.73035 50.1668C11.2296 49.0005 15.6871 47.8454 20.1313 46.6941C20.14 46.6171 20.1478 46.5805 20.1486 46.5439C20.1494 43.8056 20.1517 41.0673 20.1455 38.3283C20.1455 38.1864 20.0849 38.0414 20.0338 37.9039C19.706 37.0305 19.3326 36.1698 19.0598 35.2807C18.9316 34.8623 18.7972 34.544 18.3569 34.3513C18.1313 34.2526 17.9536 34.039 17.7791 33.8559C16.9528 32.993 16.4065 31.9791 16.1502 30.8464C15.967 30.0402 15.8907 29.2117 15.7642 28.3763C15.6832 28.4257 15.5692 28.4802 15.4741 28.5557C14.6431 29.2169 13.7728 29.8393 12.9953 30.5528C10.5668 32.7815 8.73429 35.4077 7.40803 38.3537C6.57862 40.1954 5.8868 42.0708 5.83019 44.1097C5.77359 46.1659 6.09513 48.1645 6.73192 50.1661L6.73035 50.1668ZM13.2571 26.6056C14.3931 25.9549 15.4536 25.3497 16.5118 24.74C17.2146 24.335 17.9489 23.9689 18.6054 23.505C19.6282 22.7817 20.1203 21.7843 20.1643 20.5545C20.1918 19.8051 20.2799 19.0385 20.4882 18.3183C20.8687 17.0048 21.6376 15.9349 22.9804 15.3125C23.7312 14.9651 24.5205 14.998 25.32 15.0316C26.4426 15.0787 27.5441 15.2535 28.5307 15.7638C29.9403 16.4923 31.4324 16.4945 32.9198 16.2427C34.1195 16.0395 35.2807 15.6345 36.4615 15.3275C38.515 14.7933 40.4198 15.0682 42.1376 16.3017C43.4859 17.27 44.4489 18.5574 45.3467 19.888C46.9073 22.2027 48.6455 24.3694 50.9364 26.0849C51.7005 26.6564 52.4867 27.2011 53.2626 27.7577C53.2964 27.5971 53.2697 27.4917 53.2351 27.3886C52.5189 25.2645 51.7477 23.156 51.0991 21.014C50.3538 18.5514 49.4206 16.171 48.1573 13.9056C48.0299 13.677 47.8931 13.621 47.6439 13.6217C37.923 13.627 28.2021 13.627 18.4811 13.6202C18.2241 13.6202 18.0834 13.692 17.9654 13.9049C16.1274 17.2192 14.6455 20.6643 13.7508 24.3223C13.5684 25.068 13.4245 25.8226 13.2563 26.6071L13.2571 26.6056ZM23.0448 42.6961C23.0362 42.7761 23.022 42.847 23.022 42.9173C23.0205 44.2188 23.0378 45.5211 23.011 46.8226C23.0024 47.2507 23.1368 47.5966 23.3939 47.9246C24.4356 49.2568 25.798 50.2004 27.397 50.8266C30.4104 52.0063 33.526 52.0683 36.6698 51.4564C38.8035 51.041 40.6628 50.0958 42.1816 48.5859C42.7854 47.9859 43.2752 47.3464 43.1101 46.4431C43.0818 46.2862 43.1101 46.1203 43.1101 45.9589C43.1101 44.8576 43.1101 43.7563 43.1101 42.661C43.0574 42.6543 43.0401 42.6476 43.0354 42.652C42.9914 42.6976 42.9482 42.7447 42.9073 42.7925C41.7084 44.1844 40.3884 45.4523 38.7893 46.4363C38.5055 46.6112 38.1581 46.7374 37.9537 46.9743C36.8711 48.225 35.4819 48.8892 33.8043 49.0454C31.6408 49.2463 29.7799 48.6763 28.3098 47.1028C28.2005 46.9855 28.0676 46.8846 27.9348 46.7905C27.1282 46.2212 26.2697 45.7079 25.522 45.0765C24.6557 44.3458 23.8852 43.5128 23.0464 42.6976L23.0448 42.6961ZM48.6313 33.7169C48.2225 34.0106 47.8059 34.3027 47.4002 34.6075C47.3098 34.6755 47.2296 34.7809 47.1927 34.884C46.8743 35.7731 46.5653 36.6652 46.2563 37.5573C46.1644 37.824 46.0055 38.0922 46.0032 38.3612C45.9843 41.0382 45.9953 43.716 45.9835 46.3937C45.9827 46.6283 46.0574 46.7195 46.2838 46.7763C47.4175 47.0602 48.5472 47.3576 49.6785 47.6489C50.3554 47.823 51.0331 47.9949 51.7375 48.1742C51.7304 43.1063 50.2312 38.3776 48.6321 33.7169H48.6313ZM23.4356 5.33813C23.4536 5.3725 23.4717 5.40612 23.4906 5.44049H43.1667C42.9592 5.27911 42.8239 5.17003 42.6832 5.06617C41.4969 4.19127 40.1408 3.65332 38.6989 3.31487C36.0842 2.70221 33.4309 2.60209 30.7571 2.84267C28.9639 3.00405 27.228 3.38211 25.6085 4.14195C24.8601 4.49311 24.1588 4.93617 23.4363 5.33813H23.4356Z" fill="#688CBA"/>
</svg>
