<svg width="29" height="33" viewBox="0 0 29 33" fill="none" xmlns="http://www.w3.org/2000/svg">
<g clip-path="url(#clip0_1360_19435)">
<path fill-rule="evenodd" clip-rule="evenodd" d="M8.54005 7.88994C9.63005 7.87994 10.6101 8.15994 11.5701 8.49994C12.1601 8.69994 12.7501 8.92994 13.3501 9.07994C14.4401 9.34994 15.4901 9.24994 16.5301 8.84994C17.2701 8.55994 18.0101 8.26994 18.7901 8.08994C21.1301 7.55994 23.2201 8.08994 25.1101 9.52994C25.6301 9.91994 26.1001 10.3699 26.5101 10.8699C26.6801 11.0599 26.6701 11.0999 26.4501 11.2399C24.5001 12.4299 23.3601 14.1699 23.1601 16.4499C22.9701 18.5799 23.6201 20.4399 25.1001 21.9899C25.7501 22.6599 26.5001 23.1699 27.3601 23.5399C27.6001 23.6299 27.6101 23.6699 27.5101 23.8999C26.5601 26.1099 25.2801 28.1499 23.7101 29.9699C23.1701 30.5799 22.5501 31.1399 21.8201 31.5499C20.6701 32.1899 19.4901 32.1999 18.3001 31.6899C17.8101 31.4899 17.3401 31.2299 16.8301 31.0599C15.1801 30.5399 13.5601 30.6099 11.9701 31.2699C11.5501 31.4399 11.1401 31.6299 10.7201 31.7899C9.18005 32.3599 7.79005 32.0099 6.53005 31.0099C5.76005 30.3999 5.13005 29.6699 4.55005 28.8799C3.21005 27.0799 2.16005 25.1199 1.45005 22.9899C0.940053 21.4699 0.620053 19.9099 0.530053 18.3099C0.430053 16.5499 0.570053 14.8099 1.27005 13.1699C2.38005 10.6199 4.26005 8.87994 6.97005 8.08994C7.50005 7.92994 8.04005 7.86994 8.55005 7.88994H8.54005Z" stroke="#3B3F54"/>
<path fill-rule="evenodd" clip-rule="evenodd" d="M20.08 1.20998C20.07 2.71998 19.6 3.98998 18.83 5.14998C17.95 6.45998 16.76 7.36998 15.26 7.85998C14.8 8.00998 14.33 8.08998 13.85 8.08998C13.66 8.08998 13.59 8.01998 13.57 7.82998C13.44 6.72998 13.69 5.69998 14.16 4.72998C15.08 2.78998 16.59 1.51998 18.59 0.799981C18.99 0.659981 19.41 0.589981 19.83 0.519981C20.01 0.489981 20.05 0.599981 20.06 0.739981C20.07 0.929981 20.1 1.13998 20.09 1.22998L20.08 1.20998Z" stroke="#3B3F54"/>
</g>
<defs>
<clipPath id="clip0_1360_19435">
<rect width="28.07" height="32.55" fill="white"/>
</clipPath>
</defs>
</svg>
