<svg width="33" height="30" viewBox="0 0 33 30" fill="none" xmlns="http://www.w3.org/2000/svg">
<path d="M26.5445 0.52187C26.3498 0.810872 26.155 1.09909 25.9604 1.38697C25.4244 2.18017 24.89 2.97091 24.3626 3.769C24.3625 3.76907 24.3625 3.76914 24.3624 3.7692L24.3458 3.79446C24.1758 4.052 24.0278 4.27628 23.8901 4.44371C23.7448 4.62055 23.5648 4.79362 23.3101 4.87818C23.0578 4.96196 22.8102 4.93266 22.5895 4.88247C22.3911 4.83734 22.1522 4.75921 21.8794 4.67001C21.8537 4.6616 21.8277 4.6531 21.8014 4.64452L26.5445 0.52187ZM26.5445 0.52187C26.5592 0.549787 26.5606 0.566455 26.561 0.572691C26.563 0.6 26.5564 0.685542 26.4363 0.86341C25.8608 1.7155 25.3047 2.58279 24.7523 3.44428C24.565 3.73634 24.3782 4.02774 24.1911 4.31765L24.1907 4.31828C24.1173 4.43252 24.0445 4.55598 23.9769 4.67083C23.9471 4.72139 23.9183 4.77027 23.8909 4.81597L23.6234 5.26121L24.0785 5.51151C26.6093 6.90352 28.6165 8.57592 29.9744 10.6296C31.2541 12.5652 31.9743 14.8653 31.99 17.6422H0.500079C0.508831 14.8729 1.2257 12.5753 2.50678 10.6381C3.86616 8.5826 5.88017 6.90412 8.42443 5.50342L8.89463 5.24456L8.60313 4.79386C8.36645 4.42793 8.13056 4.0607 7.89448 3.6932C7.29679 2.76275 6.69793 1.83047 6.08212 0.912614L6.08199 0.912423C5.94811 0.713086 5.92595 0.612496 5.92616 0.57044C5.92617 0.570152 5.92616 0.569802 5.92615 0.569391C5.92603 0.562882 5.92564 0.540934 5.95141 0.501143H5.95214H5.95303H5.95392H5.95481H5.9557H5.95659H5.95724C5.97137 0.518249 5.98523 0.534978 5.99884 0.551407C6.11205 0.688037 6.20804 0.803879 6.29916 0.942753C7.07941 2.1348 7.85524 3.32476 8.61118 4.52643C8.72339 4.70519 8.88649 4.90144 9.15235 4.98564C9.40068 5.06428 9.64072 5.01111 9.81295 4.96231L9.8137 4.96209C10.0638 4.8908 10.3114 4.81845 10.5572 4.74663C11.5677 4.45134 12.5476 4.16496 13.5504 3.99696L13.5506 3.99692C16.3396 3.5285 19.1016 3.76406 21.8013 4.64448L26.5445 0.52187ZM10.7781 11.2828L10.7906 11.2703L10.7911 11.0639C10.7942 9.93784 9.84389 8.9945 8.71776 9.00208H8.71772C7.60496 9.00965 6.70588 9.90326 6.68325 11.0158L6.68324 11.0162C6.66066 12.1725 7.55195 13.0922 8.70806 13.1012C9.77967 13.1096 10.666 12.3232 10.7781 11.2828ZM24.237 13.0469C25.1449 12.8377 25.7955 12.0471 25.7967 11.0609V11.0602C25.7967 9.91438 24.8831 8.98995 23.7352 9.0021L23.7349 9.0021C22.638 9.01423 21.7208 9.92066 21.6935 11.0169L21.6935 11.0173C21.666 12.1583 22.5929 13.0918 23.7324 13.1023L24.237 13.107V13.0469Z" stroke="#3B3F54"/>
<path d="M0.5 20.3049H31.5V27.8049C31.5 28.6334 30.8284 29.3049 30 29.3049H2C1.17157 29.3049 0.5 28.6334 0.5 27.8049V20.3049Z" stroke="#3B3F54"/>
</svg>
