<svg width="24" height="23" viewBox="0 0 24 23" fill="none" xmlns="http://www.w3.org/2000/svg">
<g clip-path="url(#clip0_630_7749)">
<path d="M20.5735 0.000265983C21.2474 0.000265983 21.9202 0.000265983 22.594 0.000265983C20.5341 2.34165 18.4733 4.68303 16.4134 7.02541C15.6648 7.87627 14.9172 8.72915 14.1717 9.578C16.7043 13.1735 19.2047 16.7178 21.6979 20.2671C22.2455 21.0455 22.7668 21.8421 23.3012 22.6296H16.6336C14.5697 19.7069 12.5058 16.7832 10.3883 13.784C10.2944 13.9198 10.2449 14.0083 10.1782 14.0837C8.78004 15.6698 7.37682 17.2498 5.98269 18.8399C4.87951 20.0981 3.78846 21.3664 2.69235 22.6306H0.772899C0.844626 22.5049 0.898168 22.361 0.99212 22.2544C3.25202 19.6878 5.51798 17.1261 7.78091 14.5625C8.36584 13.8997 8.94673 13.2329 9.5266 12.5701C9.41447 12.4031 9.33365 12.2764 9.24677 12.1547C6.63328 8.44452 4.0198 4.73633 1.40228 1.03116C1.17497 0.709318 0.916352 0.410611 0.671875 0.100841C0.806237 0.0676511 0.941608 0.00529472 1.07597 0.00529472C3.19747 -0.00174551 5.31897 0.000265983 7.44046 0.000265983C9.37608 2.76104 11.3107 5.52081 13.2958 8.354C13.418 8.1951 13.4837 8.09854 13.5595 8.01205C15.0779 6.29021 16.6013 4.57239 18.1156 2.84653C18.943 1.90515 19.7553 0.949691 20.5735 0.000265983ZM3.40154 1.45659C3.55105 1.68188 3.64298 1.83173 3.74603 1.97555C8.06176 7.99495 12.4007 13.9973 16.672 20.0478C17.3044 20.9429 17.9298 21.4086 19.0309 21.2306C19.5249 21.1511 20.0422 21.2175 20.6321 21.2175C20.0614 20.422 19.5633 19.728 19.0653 19.033C14.9647 13.3133 10.8652 7.59265 6.75855 1.87598C6.64036 1.71104 6.45851 1.48073 6.29789 1.47469C5.36342 1.43647 4.42592 1.45558 3.40053 1.45558L3.40154 1.45659Z" fill="#3B3F54"/>
</g>
<defs>
<clipPath id="clip0_630_7749">
<rect width="22.6293" height="22.6293" fill="white" transform="translate(0.671875)"/>
</clipPath>
</defs>
</svg>
