<svg width="24" height="25" viewBox="0 0 24 25" fill="none" xmlns="http://www.w3.org/2000/svg">
<path d="M12.0287 17.3436C14.806 17.3436 17.0575 15.0921 17.0575 12.3149C17.0575 9.53757 14.806 7.28613 12.0287 7.28613C9.25144 7.28613 7 9.53757 7 12.3149C7 15.0921 9.25144 17.3436 12.0287 17.3436Z" stroke="#3B3F54" stroke-linecap="round" stroke-linejoin="round"/>
<path d="M0.714844 17.3434V7.28592C0.714844 3.81431 3.52915 1 7.00076 1H17.0582C20.5298 1 23.3442 3.81431 23.3442 7.28592V17.3434C23.3442 20.815 20.5298 23.6293 17.0582 23.6293H7.00076C3.52915 23.6293 0.714844 20.815 0.714844 17.3434Z" stroke="#3B3F54"/>
<path d="M18.9453 5.41151L18.958 5.39746" stroke="#3B3F54" stroke-linecap="round" stroke-linejoin="round"/>
</svg>
