<svg width="57" height="49" viewBox="0 0 57 49" fill="none" xmlns="http://www.w3.org/2000/svg">
<path fill-rule="evenodd" clip-rule="evenodd" d="M30.5224 1.00096C29.8664 1.00143 29.2105 1.00191 28.5548 1.00191H22.3823C21.1096 1.00406 20.0346 1.44695 19.2563 2.48108C18.3576 3.68075 18.3942 5.05887 18.6092 6.43698C18.693 6.97447 19.2735 7.27331 19.8561 7.22816C20.4474 7.18086 20.8924 6.81752 20.9612 6.24349C20.9956 5.96033 20.9957 5.67453 20.9958 5.38835C20.9958 5.22691 20.9959 5.06535 21.0021 4.90407C21.0365 3.96454 21.4579 3.5023 22.3866 3.498C26.4651 3.48295 30.5457 3.48295 34.6241 3.498C35.5486 3.5023 35.97 3.96884 36.0023 4.91052C36.0086 5.07665 36.0077 5.24317 36.0068 5.40958C36.0055 5.63727 36.0042 5.86478 36.0216 6.09084C36.0754 6.77882 36.5376 7.21096 37.2084 7.23246C37.8985 7.25611 38.4059 6.82397 38.4769 6.11879C38.5046 5.84995 38.5014 5.57741 38.4982 5.30584C38.4972 5.21906 38.4962 5.13239 38.4962 5.04597C38.4898 2.51547 36.9848 1.00621 34.4586 1.00191C33.1471 0.999044 31.8345 1 30.5224 1.00096ZM28.5163 9.73252H51.8153C53.1655 9.73252 54.3608 10.0658 55.223 11.1945C55.7519 11.8911 55.9862 12.6865 55.9884 13.5487L55.9909 14.5339C55.997 16.8349 56.0031 19.1359 55.9862 21.4368C55.9711 23.2922 54.7736 24.7392 52.9419 25.1477C46.664 26.5494 40.3862 27.9512 34.104 29.3293C33.6181 29.4368 33.4741 29.6174 33.4934 30.099C33.5261 30.9588 33.5174 31.8186 33.5087 32.6784C33.5071 32.8377 33.5055 32.9969 33.5042 33.1562C33.4934 34.3064 33.0892 34.7128 31.9541 34.7149C29.6644 34.7192 27.3725 34.7171 25.0828 34.7149C23.9133 34.7149 23.5112 34.3129 23.5048 33.1304L23.5019 32.6985C23.4956 31.7869 23.4892 30.8755 23.5134 29.9657C23.522 29.5894 23.4059 29.4368 23.0382 29.3573C17.2097 28.0716 11.3855 26.7752 5.5613 25.4787C5.40795 25.4446 5.25421 25.4118 5.10047 25.3789L5.10037 25.3789C4.62475 25.2772 4.14904 25.1756 3.68439 25.0359C2.12783 24.565 1.0507 23.1976 1.03135 21.5701C0.996954 18.8526 0.981904 16.1329 1.0335 13.4154C1.0765 11.1751 2.68036 9.74542 5.05606 9.73682C7.55397 9.72795 10.0509 9.73026 12.5481 9.73257C13.6834 9.73362 14.8186 9.73467 15.9541 9.73467H28.5163V9.73252ZM33.4999 26.9493C33.5765 26.9368 33.6429 26.9265 33.7022 26.9173C33.836 26.8965 33.9334 26.8814 34.0288 26.859C40.1131 25.5002 46.1953 24.1415 52.2797 22.7784C53.1741 22.5785 53.4944 22.1721 53.4966 21.224C53.503 18.7559 53.503 16.2877 53.4966 13.8217C53.4944 12.6543 53.0881 12.2501 51.9077 12.2501H5.10766C3.90584 12.2501 3.50809 12.6521 3.50809 13.8647C3.50594 16.2791 3.50594 18.6935 3.50809 21.1057C3.50809 22.2151 3.79619 22.5656 4.87331 22.8064C7.23407 23.335 9.59483 23.8642 11.9556 24.3934C14.3183 24.9231 16.6809 25.4527 19.0436 25.9818C20.1824 26.2368 21.3212 26.4878 22.4978 26.7471L22.4992 26.7474L23.5026 26.9687C23.5026 26.8564 23.5013 26.7511 23.5001 26.6506V26.6505C23.4977 26.4623 23.4956 26.2904 23.5026 26.1194C23.5521 25.1412 23.967 24.7413 24.9517 24.7306C25.4763 24.7248 26.0009 24.7267 26.5255 24.7287C26.7877 24.7296 27.05 24.7306 27.3123 24.7306C27.7676 24.7306 28.2227 24.7299 28.6777 24.7292C29.8149 24.7274 30.9517 24.7256 32.0895 24.7349C33.0183 24.7413 33.4289 25.1369 33.4934 26.0571C33.5064 26.2439 33.503 26.4326 33.4993 26.6368V26.6369C33.4975 26.7381 33.4956 26.8431 33.4956 26.9536L33.4999 26.9493ZM26.0632 27.246V32.1866H30.9436V27.246H26.0632ZM22.1552 48.4527H22.155H22.1442C16.8572 48.4518 11.5698 48.4509 6.28343 48.4555C4.66021 48.4555 3.37024 47.8664 2.66506 46.3572C2.41782 45.8261 2.29097 45.1897 2.28882 44.6006C2.26087 39.2903 2.26732 33.9777 2.27592 28.6674C2.27592 27.5945 2.91661 27.0657 3.87333 27.2914C4.29472 27.3903 4.57637 27.6483 4.67741 28.0611C4.74406 28.3363 4.76771 28.6265 4.76771 28.9082C4.77201 34.0223 4.77201 39.1365 4.77201 44.2506V44.2523C4.77201 45.5939 5.14395 45.9616 6.49627 45.9616H50.51C51.8645 45.9616 52.2386 45.5939 52.2386 44.2567V28.805C52.2386 27.7945 52.5976 27.3151 53.3953 27.2398C54.0789 27.1753 54.6186 27.6031 54.7067 28.2868C54.7282 28.4631 54.7368 28.6437 54.7368 28.8222C54.7368 30.1232 54.7366 31.4241 54.7363 32.7249C54.7355 36.6283 54.7347 40.5311 54.7411 44.4351C54.7433 45.7638 54.3412 46.8903 53.2512 47.7116C52.5052 48.2728 51.6474 48.4555 50.7293 48.4534C47.6742 48.4487 44.6192 48.4496 41.5641 48.4505C40.3429 48.4508 39.1217 48.4512 37.9006 48.4512H28.5075L28.5053 48.4534C26.3888 48.4534 24.272 48.453 22.1552 48.4527Z" fill="#688CBA"/>
<path d="M30.5224 1.00096L30.5227 1.50096L30.5227 1.50096L30.5224 1.00096ZM22.3823 1.00191V0.50191L22.3815 0.501912L22.3823 1.00191ZM19.2563 2.48108L18.8568 2.18041L18.8561 2.18131L19.2563 2.48108ZM18.6092 6.43698L19.1032 6.35992L19.1032 6.35991L18.6092 6.43698ZM19.8561 7.22816L19.8948 7.72667L19.896 7.72657L19.8561 7.22816ZM20.9612 6.24349L20.4649 6.18325L20.4648 6.18399L20.9612 6.24349ZM20.9958 5.38835L20.4958 5.38819L20.4958 5.38819L20.9958 5.38835ZM21.0021 4.90407L21.5017 4.92328L21.5017 4.92236L21.0021 4.90407ZM22.3866 3.498L22.3848 2.99801L22.3843 2.99801L22.3866 3.498ZM34.6241 3.498L34.6265 2.99801L34.626 2.99801L34.6241 3.498ZM36.0023 4.91052L35.5026 4.92763L35.5026 4.92963L36.0023 4.91052ZM36.0068 5.40958L36.5068 5.41237L36.5068 5.41237L36.0068 5.40958ZM36.0216 6.09084L35.5231 6.12918L35.5231 6.12978L36.0216 6.09084ZM37.2084 7.23246L37.2255 6.73276L37.2244 6.73272L37.2084 7.23246ZM38.4769 6.11879L37.9795 6.06755L37.9794 6.06874L38.4769 6.11879ZM38.4982 5.30584L38.9982 5.30002L38.9982 5.30001L38.4982 5.30584ZM38.4962 5.04597L38.9962 5.04597L38.9962 5.04469L38.4962 5.04597ZM34.4586 1.00191L34.4575 1.50191L34.4577 1.50191L34.4586 1.00191ZM28.5163 9.73252V9.23252H28.0163V9.73252H28.5163ZM55.223 11.1945L55.6212 10.8921L55.6203 10.891L55.223 11.1945ZM55.9884 13.5487L55.4884 13.5499L55.4884 13.55L55.9884 13.5487ZM55.9909 14.5339L55.4909 14.5352L55.4909 14.5353L55.9909 14.5339ZM55.9862 21.4368L56.4862 21.4409L56.4862 21.4405L55.9862 21.4368ZM52.9419 25.1477L52.833 24.6596L52.8329 24.6597L52.9419 25.1477ZM34.104 29.3293L33.9969 28.8409L33.996 28.8411L34.104 29.3293ZM33.4934 30.099L33.9931 30.08L33.993 30.0789L33.4934 30.099ZM33.5087 32.6784L33.0088 32.6734L33.0088 32.6734L33.5087 32.6784ZM33.5042 33.1562L34.0042 33.1609L34.0042 33.1604L33.5042 33.1562ZM31.9541 34.7149L31.955 35.2149L31.955 35.2149L31.9541 34.7149ZM25.0828 34.7149L25.0833 34.2149H25.0828V34.7149ZM23.5048 33.1304L24.0048 33.1277L24.0048 33.1271L23.5048 33.1304ZM23.5019 32.6985L24.0019 32.6952L24.0019 32.695L23.5019 32.6985ZM23.5134 29.9657L24.0132 29.9789L24.0132 29.9771L23.5134 29.9657ZM23.0382 29.3573L22.9305 29.8455L22.9325 29.8459L23.0382 29.3573ZM5.5613 25.4787L5.45265 25.9668L5.45266 25.9668L5.5613 25.4787ZM5.10047 25.3789L4.9843 25.8654L4.99597 25.8679L5.10047 25.3789ZM5.10037 25.3789L5.21654 24.8924L5.20486 24.8899L5.10037 25.3789ZM3.68439 25.0359L3.53963 25.5144L3.54041 25.5147L3.68439 25.0359ZM1.03135 21.5701L1.53132 21.5642L1.53131 21.5638L1.03135 21.5701ZM1.0335 13.4154L0.533595 13.4058L0.533593 13.4059L1.0335 13.4154ZM5.05606 9.73682L5.05428 9.23682L5.05425 9.23682L5.05606 9.73682ZM12.5481 9.73257L12.5486 9.23257L12.5481 9.73257ZM28.5163 9.73467V10.2347H29.0163V9.73467H28.5163ZM33.7022 26.9173L33.6255 26.4232L33.6255 26.4232L33.7022 26.9173ZM33.4999 26.9493L33.4191 26.4559L33.2603 26.4819L33.1465 26.5956L33.4999 26.9493ZM34.0288 26.859L33.9198 26.371L33.9147 26.3722L34.0288 26.859ZM52.2797 22.7784L52.1706 22.2905L52.1704 22.2905L52.2797 22.7784ZM53.4966 21.224L52.9966 21.2227L52.9966 21.2229L53.4966 21.224ZM53.4966 13.8217L52.9966 13.8226L52.9966 13.823L53.4966 13.8217ZM3.50809 13.8647L4.00809 13.8652V13.8647H3.50809ZM3.50809 21.1057L4.00809 21.1057L4.00809 21.1053L3.50809 21.1057ZM4.87331 22.8064L4.98258 22.3184L4.9824 22.3184L4.87331 22.8064ZM11.9556 24.3934L12.065 23.9056L12.065 23.9056L11.9556 24.3934ZM19.0436 25.9818L18.9344 26.4697L18.9344 26.4698L19.0436 25.9818ZM22.4978 26.7471L22.6058 26.2589L22.6054 26.2588L22.4978 26.7471ZM22.4992 26.7474L22.3911 27.2356L22.3915 27.2357L22.4992 26.7474ZM23.5026 26.9687L23.395 27.4569L24.0026 27.5909V26.9687H23.5026ZM23.5001 26.6506L23 26.6506L23.0001 26.6568L23.5001 26.6506ZM23.5001 26.6505L24.0001 26.6505L24 26.6443L23.5001 26.6505ZM23.5026 26.1194L23.0032 26.0942L23.003 26.099L23.5026 26.1194ZM24.9517 24.7306L24.9571 25.2305L24.9572 25.2305L24.9517 24.7306ZM26.5255 24.7287L26.5273 24.2287L26.5255 24.7287ZM28.6777 24.7292L28.6785 25.2292L28.6785 25.2292L28.6777 24.7292ZM32.0895 24.7349L32.0855 25.2348L32.086 25.2348L32.0895 24.7349ZM33.4934 26.0571L33.9922 26.0226L33.9922 26.0221L33.4934 26.0571ZM33.4993 26.6368L32.9993 26.6278V26.6368H33.4993ZM33.4993 26.6369L33.9993 26.6459V26.6369H33.4993ZM33.4956 26.9536H32.9956V28.16L33.849 27.3073L33.4956 26.9536ZM26.0632 32.1866H25.5632V32.6866H26.0632V32.1866ZM26.0632 27.246V26.746H25.5632V27.246H26.0632ZM30.9436 32.1866V32.6866H31.4436V32.1866H30.9436ZM30.9436 27.246H31.4436V26.746H30.9436V27.246ZM22.1552 48.4527L22.1553 47.9527H22.1552V48.4527ZM22.1442 48.4527L22.1441 48.9527H22.1442V48.4527ZM6.28343 48.4555L6.28343 48.9555L6.28386 48.9555L6.28343 48.4555ZM2.66506 46.3572L2.21178 46.5682L2.21207 46.5688L2.66506 46.3572ZM2.28882 44.6006L2.78882 44.5988L2.78881 44.598L2.28882 44.6006ZM2.27592 28.6674L2.77592 28.6682V28.6674H2.27592ZM3.87333 27.2914L3.75851 27.778L3.75909 27.7782L3.87333 27.2914ZM4.67741 28.0611L5.16337 27.9434L5.16307 27.9422L4.67741 28.0611ZM4.76771 28.9082L4.26771 28.9082L4.26771 28.9086L4.76771 28.9082ZM53.3953 27.2398L53.4422 27.7376L53.4422 27.7376L53.3953 27.2398ZM54.7067 28.2868L55.2031 28.2263L55.2026 28.2229L54.7067 28.2868ZM54.7363 32.7249L55.2363 32.725L55.2363 32.725L54.7363 32.7249ZM54.7411 44.4351L55.2411 44.4343L55.2411 44.4343L54.7411 44.4351ZM53.2512 47.7116L53.5518 48.1112L53.5521 48.111L53.2512 47.7116ZM50.7293 48.4534L50.7305 47.9534L50.7301 47.9534L50.7293 48.4534ZM41.5641 48.4505L41.5639 47.9505L41.5639 47.9505L41.5641 48.4505ZM28.5075 48.4512V47.9512H28.2998L28.1533 48.0983L28.5075 48.4512ZM28.5053 48.4534V48.9534H28.7129L28.8595 48.8063L28.5053 48.4534ZM28.5548 1.50191C29.2107 1.50191 29.8668 1.50143 30.5227 1.50096L30.522 0.500956C29.866 0.501434 29.2103 0.501911 28.5548 0.501911V1.50191ZM22.3823 1.50191H28.5548V0.501911H22.3823V1.50191ZM19.6558 2.78174C20.3249 1.89274 21.2406 1.50384 22.3832 1.50191L22.3815 0.501912C20.9786 0.504282 19.7443 1.00116 18.8568 2.18041L19.6558 2.78174ZM19.1032 6.35991C18.8923 5.00784 18.8862 3.80917 19.6565 2.78085L18.8561 2.18131C17.8291 3.55232 17.8961 5.10989 18.1152 6.51405L19.1032 6.35991ZM19.8175 6.72966C19.368 6.76449 19.1297 6.53005 19.1032 6.35992L18.1152 6.51405C18.2563 7.41889 19.179 7.78213 19.8948 7.72667L19.8175 6.72966ZM20.4648 6.18399C20.4293 6.48034 20.2144 6.69791 19.8163 6.72976L19.896 7.72657C20.6804 7.66382 21.3556 7.15471 21.4577 6.30299L20.4648 6.18399ZM20.4958 5.38819C20.4957 5.67951 20.495 5.93503 20.4649 6.18325L21.4576 6.30373C21.4962 5.98563 21.4957 5.66956 21.4958 5.38851L20.4958 5.38819ZM20.5024 4.88485C20.4958 5.05725 20.4958 5.22835 20.4958 5.38819L21.4958 5.38851C21.4958 5.22548 21.4959 5.07345 21.5017 4.92328L20.5024 4.88485ZM22.3843 2.99801C21.8422 3.00052 21.3522 3.13791 20.9995 3.50282C20.6529 3.86137 20.5218 4.35484 20.5024 4.88577L21.5017 4.92236C21.5167 4.51377 21.6136 4.30635 21.7185 4.19783C21.8172 4.09566 22.0023 3.99979 22.389 3.998L22.3843 2.99801ZM34.626 2.99801C30.5463 2.98295 26.4645 2.98295 22.3848 2.99801L22.3885 3.998C26.4657 3.98295 30.5451 3.98295 34.6223 3.998L34.626 2.99801ZM36.502 4.89341C36.4838 4.36142 36.3536 3.86689 36.0089 3.50692C35.6574 3.13992 35.1682 3.00053 34.6265 2.99801L34.6218 3.998C35.0046 3.99978 35.1883 4.09581 35.2867 4.19857C35.3918 4.30836 35.4885 4.51794 35.5026 4.92763L36.502 4.89341ZM36.5068 5.41237C36.5077 5.2478 36.5087 5.07032 36.5019 4.89141L35.5026 4.92963C35.5085 5.08299 35.5077 5.23853 35.5068 5.4068L36.5068 5.41237ZM36.5201 6.0525C36.5046 5.85041 36.5055 5.64356 36.5068 5.41237L35.5068 5.40679C35.5055 5.63099 35.5039 5.87914 35.5231 6.12918L36.5201 6.0525ZM37.2244 6.73272C36.9947 6.72536 36.8342 6.65043 36.7288 6.54987C36.6237 6.44955 36.5387 6.29055 36.5201 6.0519L35.5231 6.12978C35.5582 6.57912 35.7313 6.98018 36.0384 7.27329C36.3453 7.56618 36.7513 7.71807 37.1924 7.73221L37.2244 6.73272ZM37.9794 6.06874C37.9551 6.31043 37.8613 6.47191 37.7465 6.5718C37.6313 6.67207 37.4599 6.74079 37.2255 6.73276L37.1913 7.73217C37.647 7.74779 38.0743 7.61226 38.4031 7.32607C38.7323 7.03951 38.9277 6.63233 38.9743 6.16884L37.9794 6.06874ZM37.9983 5.31166C38.0015 5.58819 38.0038 5.83196 37.9795 6.06755L38.9742 6.17003C39.0053 5.86794 39.0013 5.56662 38.9982 5.30002L37.9983 5.31166ZM37.9962 5.04597C37.9962 5.13578 37.9973 5.22536 37.9983 5.31166L38.9982 5.30001C38.9972 5.21276 38.9962 5.12899 38.9962 5.04597H37.9962ZM34.4577 1.50191C35.6212 1.50389 36.4901 1.85037 37.0684 2.42983C37.6469 3.00947 37.9932 3.88085 37.9962 5.04724L38.9962 5.04469C38.9927 3.68059 38.5833 2.5321 37.7762 1.72341C36.9689 0.914533 35.8222 0.504231 34.4595 0.501912L34.4577 1.50191ZM30.5227 1.50096C31.835 1.5 33.1468 1.49905 34.4575 1.50191L34.4597 0.501912C33.1473 0.499044 31.8341 0.5 30.522 0.500956L30.5227 1.50096ZM51.8153 9.23252H28.5163V10.2325H51.8153V9.23252ZM55.6203 10.891C54.6277 9.59139 53.2506 9.23252 51.8153 9.23252V10.2325C53.0803 10.2325 54.094 10.5401 54.8256 11.498L55.6203 10.891ZM56.4884 13.5474C56.486 12.59 56.2235 11.6855 55.6212 10.8921L54.8247 11.4968C55.2802 12.0967 55.4864 12.7831 55.4884 13.5499L56.4884 13.5474ZM56.4909 14.5326L56.4884 13.5474L55.4884 13.55L55.4909 14.5352L56.4909 14.5326ZM56.4862 21.4405C56.5031 19.1366 56.497 16.8332 56.4909 14.5326L55.4909 14.5353C55.497 16.8366 55.5031 19.1351 55.4862 21.4332L56.4862 21.4405ZM53.0507 25.6357C55.1025 25.1781 56.4692 23.5362 56.4862 21.4409L55.4862 21.4328C55.4731 23.0483 54.4448 24.3002 52.833 24.6596L53.0507 25.6357ZM34.2112 29.8177C40.4944 28.4393 46.7731 27.0374 53.0508 25.6356L52.8329 24.6597C46.5549 26.0615 40.278 27.463 33.9969 28.8409L34.2112 29.8177ZM33.993 30.0789C33.9847 29.8721 34.021 29.8593 34.0008 29.8848C33.9839 29.9061 33.9964 29.8652 34.212 29.8175L33.996 28.8411C33.7257 28.9009 33.4232 29.0041 33.2177 29.2629C33.0088 29.526 32.9828 29.8443 32.9938 30.1191L33.993 30.0789ZM34.0087 32.6834C34.0174 31.8256 34.0263 30.9538 33.9931 30.08L32.9938 30.118C33.0259 30.9638 33.0175 31.8116 33.0088 32.6734L34.0087 32.6834ZM34.0042 33.1604C34.0055 33.0016 34.0071 32.8428 34.0087 32.6834L33.0088 32.6734C33.0072 32.8326 33.0055 32.9922 33.0042 33.152L34.0042 33.1604ZM31.955 35.2149C32.559 35.2138 33.1163 35.1098 33.5053 34.7187C33.8926 34.3293 33.9985 33.7699 34.0042 33.1609L33.0042 33.1515C32.9991 33.6928 32.8976 33.9116 32.7963 34.0135C32.6967 34.1136 32.4843 34.2139 31.9531 34.2149L31.955 35.2149ZM25.0824 35.2149C27.3719 35.2171 29.6645 35.2192 31.955 35.2149L31.9531 34.2149C29.6643 34.2192 27.3731 34.2171 25.0833 34.2149L25.0824 35.2149ZM23.0048 33.1331C23.0082 33.7544 23.1103 34.3246 23.5035 34.7191C23.898 35.1148 24.4665 35.2149 25.0828 35.2149V34.2149C24.5296 34.2149 24.3123 34.114 24.2118 34.0131C24.1099 33.911 24.0078 33.6889 24.0048 33.1277L23.0048 33.1331ZM23.0019 32.7018L23.0048 33.1337L24.0048 33.1271L24.0019 32.6952L23.0019 32.7018ZM23.0135 29.9524C22.9892 30.872 22.9956 31.7918 23.0019 32.702L24.0019 32.695C23.9955 31.782 23.9893 30.879 24.0132 29.9789L23.0135 29.9524ZM22.9325 29.8459C23.0002 29.8606 23.0324 29.8738 23.0443 29.8798C23.0525 29.8839 23.0385 29.8781 23.022 29.8569C23.0058 29.836 23.0042 29.822 23.0067 29.8329C23.01 29.8478 23.0151 29.8838 23.0135 29.9543L24.0132 29.9771C24.0184 29.7521 23.9926 29.4763 23.8117 29.2435C23.6296 29.009 23.3672 28.9169 23.144 28.8686L22.9325 29.8459ZM5.45266 25.9668C11.2768 27.2632 17.1015 28.5597 22.9305 29.8455L23.1459 28.869C17.318 27.5834 11.4942 26.2871 5.66993 24.9907L5.45266 25.9668ZM4.99597 25.8679C5.15006 25.9008 5.30172 25.9332 5.45265 25.9668L5.66994 24.9907C5.51417 24.956 5.35836 24.9227 5.20496 24.8899L4.99597 25.8679ZM4.98423 25.8652L4.98433 25.8652L5.2166 24.8926L5.21651 24.8926L4.98423 25.8652ZM3.54041 25.5147C4.02787 25.6613 4.52364 25.7669 4.99588 25.8678L5.20486 24.8899C4.72586 24.7876 4.27022 24.6899 3.82837 24.557L3.54041 25.5147ZM0.531389 21.5761C0.553457 23.4323 1.78446 24.9835 3.53963 25.5144L3.82916 24.5573C2.47119 24.1465 1.54795 22.963 1.53132 21.5642L0.531389 21.5761ZM0.533593 13.4059C0.481847 16.1312 0.496969 18.857 0.531393 21.5765L1.53131 21.5638C1.49694 18.8482 1.48196 16.1346 1.53341 13.4249L0.533593 13.4059ZM5.05425 9.23682C3.76723 9.24148 2.64541 9.63229 1.83392 10.369C1.01841 11.1095 0.557457 12.1626 0.533595 13.4058L1.53341 13.425C1.55255 12.4279 1.91503 11.6461 2.50612 11.1094C3.10124 10.5691 3.96919 10.2408 5.05787 10.2368L5.05425 9.23682ZM12.5486 9.23257C10.0515 9.23026 7.5535 9.22795 5.05428 9.23682L5.05783 10.2368C7.55444 10.228 10.0502 10.2303 12.5477 10.2326L12.5486 9.23257ZM15.9541 9.23467C14.8189 9.23467 13.6839 9.23362 12.5486 9.23257L12.5477 10.2326C13.6829 10.2336 14.8184 10.2347 15.9541 10.2347V9.23467ZM28.5163 9.23467H15.9541V10.2347H28.5163V9.23467ZM28.0163 9.73252V9.73467H29.0163V9.73252H28.0163ZM33.6255 26.4232C33.5663 26.4324 33.4979 26.443 33.4191 26.4559L33.5807 27.4427C33.655 27.4306 33.7195 27.4205 33.7789 27.4113L33.6255 26.4232ZM33.9147 26.3722C33.8415 26.3894 33.7642 26.4016 33.6255 26.4232L33.7789 27.4113C33.9078 27.3913 34.0253 27.3734 34.1429 27.3458L33.9147 26.3722ZM52.1704 22.2905C46.0862 23.6535 40.0041 25.0123 33.9198 26.371L34.1378 27.347C40.2221 25.9882 46.3045 24.6294 52.389 23.2663L52.1704 22.2905ZM52.9966 21.2229C52.9956 21.6527 52.9202 21.8572 52.8292 21.9733C52.7405 22.0865 52.5694 22.2013 52.1706 22.2905L52.3888 23.2664C52.8843 23.1556 53.3207 22.9672 53.6162 22.5903C53.9095 22.2162 53.9954 21.7434 53.9966 21.2251L52.9966 21.2229ZM52.9966 13.823C53.003 16.2881 53.003 18.7554 52.9966 21.2227L53.9966 21.2253C54.003 18.7563 54.003 16.2873 53.9966 13.8204L52.9966 13.823ZM51.9077 12.7501C52.4668 12.7501 52.6894 12.8517 52.7921 12.9534C52.8937 13.054 52.9955 13.2714 52.9966 13.8226L53.9966 13.8208C53.9954 13.2046 53.893 12.6362 53.4958 12.2429C53.0997 11.8506 52.529 11.7501 51.9077 11.7501V12.7501ZM5.10766 12.7501H51.9077V11.7501H5.10766V12.7501ZM4.00809 13.8647C4.00809 13.2846 4.10992 13.0581 4.21245 12.9545C4.31359 12.8524 4.5346 12.7501 5.10766 12.7501V11.7501C4.47889 11.7501 3.90013 11.8488 3.50194 12.2509C3.10514 12.6515 3.00809 13.2323 3.00809 13.8647H4.00809ZM4.00809 21.1053C4.00594 18.6934 4.00594 16.2793 4.00809 13.8652L3.00809 13.8643C3.00594 16.279 3.00594 18.6937 3.00809 21.1062L4.00809 21.1053ZM4.9824 22.3184C4.4612 22.2019 4.26894 22.0832 4.17606 21.968C4.08378 21.8535 4.00809 21.641 4.00809 21.1057H3.00809C3.00809 21.6798 3.07646 22.1973 3.3975 22.5956C3.71795 22.9931 4.2083 23.17 4.76423 23.2943L4.9824 22.3184ZM12.065 23.9056C9.70421 23.3764 7.3434 22.8471 4.98258 22.3184L4.76405 23.2943C7.12475 23.8229 9.48545 24.3521 11.8462 24.8813L12.065 23.9056ZM19.1529 25.4939C16.7903 24.9648 14.4276 24.4352 12.065 23.9056L11.8462 24.8813C14.2089 25.411 16.5716 25.9406 18.9344 26.4697L19.1529 25.4939ZM22.6054 26.2588C21.4287 25.9995 20.2907 25.7486 19.1529 25.4939L18.9344 26.4698C20.0741 26.7249 21.2138 26.9761 22.3902 27.2354L22.6054 26.2588ZM22.6072 26.2592L22.6058 26.2589L22.3898 27.2353L22.3911 27.2356L22.6072 26.2592ZM23.6103 26.4804L22.6068 26.2591L22.3915 27.2357L23.395 27.4569L23.6103 26.4804ZM23.0001 26.6568C23.0014 26.7577 23.0026 26.8599 23.0026 26.9687H24.0026C24.0026 26.8528 24.0013 26.7446 24 26.6444L23.0001 26.6568ZM23.0001 26.6505V26.6506H24.0001V26.6505H23.0001ZM23.003 26.099C22.9954 26.2856 22.9978 26.471 23.0001 26.6567L24 26.6443C23.9977 26.4535 23.9958 26.2952 24.0022 26.1399L23.003 26.099ZM24.9462 24.2306C24.4003 24.2366 23.897 24.3495 23.5302 24.7014C23.1633 25.0536 23.0307 25.5513 23.0033 26.0942L24.002 26.1447C24.024 25.7094 24.1236 25.518 24.2226 25.423C24.3219 25.3277 24.5184 25.2353 24.9571 25.2305L24.9462 24.2306ZM26.5273 24.2287C26.0033 24.2267 25.4751 24.2248 24.9462 24.2306L24.9572 25.2305C25.4775 25.2248 25.9984 25.2267 26.5236 25.2286L26.5273 24.2287ZM27.3123 24.2306C27.0511 24.2306 26.7897 24.2296 26.5273 24.2287L26.5236 25.2286C26.7858 25.2296 27.049 25.2306 27.3123 25.2306V24.2306ZM28.6769 24.2292C28.2218 24.2299 27.7671 24.2306 27.3123 24.2306V25.2306C27.768 25.2306 28.2235 25.2299 28.6785 25.2292L28.6769 24.2292ZM32.0936 24.2349C30.9529 24.2256 29.8137 24.2274 28.6769 24.2292L28.6785 25.2292C29.8161 25.2274 30.9504 25.2257 32.0855 25.2348L32.0936 24.2349ZM33.9922 26.0221C33.9559 25.504 33.8163 25.0281 33.4593 24.6902C33.1016 24.3516 32.6177 24.2385 32.093 24.2349L32.086 25.2348C32.4901 25.2377 32.6759 25.3256 32.7718 25.4164C32.8685 25.508 32.9665 25.69 32.9947 26.092L33.9922 26.0221ZM33.9992 26.6458C34.0028 26.4459 34.0069 26.2349 33.9922 26.0226L32.9946 26.0916C33.0058 26.2529 33.0031 26.4194 32.9994 26.6278L33.9992 26.6458ZM33.9993 26.6369V26.6368H32.9993V26.6369H33.9993ZM33.9956 26.9536C33.9956 26.8483 33.9974 26.7476 33.9992 26.6459L32.9994 26.6279C32.9976 26.7286 32.9956 26.838 32.9956 26.9536H33.9956ZM33.1465 26.5956L33.1422 26.5999L33.849 27.3073L33.8533 27.303L33.1465 26.5956ZM26.5632 32.1866V27.246H25.5632V32.1866H26.5632ZM30.9436 31.6866H26.0632V32.6866H30.9436V31.6866ZM30.4436 27.246V32.1866H31.4436V27.246H30.4436ZM26.0632 27.746H30.9436V26.746H26.0632V27.746ZM22.155 48.9527H22.1552V47.9527H22.155V48.9527ZM22.1442 48.9527H22.155V47.9527H22.1442V48.9527ZM6.28386 48.9555C11.5699 48.9509 16.8571 48.9518 22.1441 48.9527L22.1443 47.9527C16.8573 47.9518 11.5696 47.9509 6.28299 47.9555L6.28386 48.9555ZM2.21207 46.5688C2.60637 47.4127 3.17641 48.0202 3.88986 48.4109C4.59674 48.7979 5.41368 48.9555 6.28343 48.9555V47.9555C5.52996 47.9555 4.89031 47.8186 4.37011 47.5337C3.85647 47.2525 3.42893 46.8109 3.11805 46.1455L2.21207 46.5688ZM1.78882 44.6025C1.79121 45.2551 1.93053 45.9641 2.21178 46.5682L3.11834 46.1461C2.9051 45.6881 2.79073 45.1244 2.78882 44.5988L1.78882 44.6025ZM1.77592 28.6666C1.76732 33.9768 1.76087 39.291 1.78883 44.6033L2.78881 44.598C2.76087 39.2896 2.76732 33.9786 2.77592 28.6682L1.77592 28.6666ZM3.98816 26.8048C3.40178 26.6664 2.82515 26.7428 2.39179 27.1117C1.96479 27.4751 1.77592 28.0387 1.77592 28.6674H2.77592C2.77592 28.2232 2.9074 27.986 3.03992 27.8732C3.16609 27.7658 3.38816 27.6907 3.75851 27.778L3.98816 26.8048ZM5.16307 27.9422C5.01315 27.3298 4.57454 26.9424 3.98757 26.8046L3.75909 27.7782C4.01491 27.8382 4.13958 27.9668 4.19175 28.18L5.16307 27.9422ZM5.26771 28.9082C5.26771 28.6006 5.2421 28.2685 5.16337 27.9434L4.19146 28.1788C4.24602 28.4041 4.26771 28.6524 4.26771 28.9082H5.26771ZM5.27201 44.2506C5.27201 39.1365 5.27201 34.0221 5.26771 28.9077L4.26771 28.9086C4.27201 34.0225 4.27201 39.1365 4.27201 44.2506H5.27201ZM5.27201 44.2523V44.2506H4.27201V44.2523H5.27201ZM6.49627 45.4616C5.8256 45.4616 5.58513 45.3601 5.47893 45.2549C5.37425 45.1511 5.27201 44.9163 5.27201 44.2523H4.27201C4.27201 44.93 4.35574 45.5497 4.77511 45.9652C5.19296 46.3792 5.81462 46.4616 6.49627 46.4616V45.4616ZM50.51 45.4616H6.49627V46.4616H50.51V45.4616ZM51.7386 44.2567C51.7386 44.9176 51.636 45.1512 51.5312 45.2545C51.4241 45.3601 51.1817 45.4616 50.51 45.4616V46.4616C51.1928 46.4616 51.8147 46.3792 52.2332 45.9667C52.6541 45.5518 52.7386 44.933 52.7386 44.2567H51.7386ZM51.7386 28.805V44.2567H52.7386V28.805H51.7386ZM53.3483 26.742C52.8536 26.7887 52.4139 26.9723 52.1161 27.3739C51.8339 27.7547 51.7386 28.2542 51.7386 28.805H52.7386C52.7386 28.3452 52.8228 28.0998 52.9195 27.9694C53.0007 27.8599 53.1393 27.7662 53.4422 27.7376L53.3483 26.742ZM55.2026 28.2229C55.0798 27.2705 54.2989 26.6523 53.3483 26.742L53.4422 27.7376C53.859 27.6983 54.1573 27.9357 54.2108 28.3508L55.2026 28.2229ZM55.2368 28.8222C55.2368 28.6282 55.2275 28.4269 55.2031 28.2263L54.2104 28.3474C54.2289 28.4994 54.2368 28.6592 54.2368 28.8222H55.2368ZM55.2363 32.725C55.2366 31.4242 55.2368 30.1233 55.2368 28.8222H54.2368C54.2368 30.1231 54.2366 31.424 54.2363 32.7248L55.2363 32.725ZM55.2411 44.4343C55.2347 40.5308 55.2355 36.6285 55.2363 32.725L54.2363 32.7248C54.2355 36.6281 54.2347 40.5314 54.2411 44.4359L55.2411 44.4343ZM53.5521 48.111C54.7991 47.1714 55.2435 45.8763 55.2411 44.4343L54.2411 44.4359C54.2431 45.6513 53.8833 46.6093 52.9503 47.3123L53.5521 48.111ZM50.7282 48.9534C51.7138 48.9557 52.6908 48.7588 53.5518 48.1112L52.9507 47.312C52.3196 47.7867 51.5809 47.9553 50.7305 47.9534L50.7282 48.9534ZM41.5642 48.9505C44.6194 48.9496 47.674 48.9487 50.7286 48.9534L50.7301 47.9534C47.6745 47.9487 44.6189 47.9496 41.5639 47.9505L41.5642 48.9505ZM37.9006 48.9512C39.1218 48.9512 40.3431 48.9508 41.5642 48.9505L41.5639 47.9505C40.3428 47.9508 39.1217 47.9512 37.9006 47.9512V48.9512ZM28.5075 48.9512H37.9006V47.9512H28.5075V48.9512ZM28.8595 48.8063L28.8616 48.8041L28.1533 48.0983L28.1511 48.1004L28.8595 48.8063ZM22.1551 48.9527C24.2719 48.953 26.3887 48.9534 28.5053 48.9534V47.9534C26.3888 47.9534 24.2721 47.953 22.1553 47.9527L22.1551 48.9527Z" fill="#688CBA"/>
</svg>
