<svg width="193" height="66" viewBox="0 0 193 66" fill="none" xmlns="http://www.w3.org/2000/svg">
<rect x="0.81543" width="191.921" height="66" rx="6" fill="#3B3F54"/>
<path d="M68.1308 26.3685V21.1602H69.1306C69.8701 21.1602 70.3915 21.1973 70.6936 21.2726C70.9957 21.347 71.2606 21.4728 71.4884 21.6481C71.7867 21.8787 72.0135 22.1723 72.1679 22.5306C72.3223 22.889 72.3995 23.3016 72.3995 23.7686C72.3995 24.2356 72.3233 24.6445 72.1698 25.0009C72.0173 25.3583 71.7895 25.6518 71.4884 25.8815C71.2606 26.0569 71.0014 26.1827 70.7107 26.257C70.42 26.3313 69.9673 26.3685 69.3536 26.3685H68.1299H68.1308ZM68.757 25.7852H69.1515C69.792 25.7852 70.2352 25.7576 70.482 25.7014C70.7288 25.6451 70.9337 25.5498 71.0977 25.4145C71.3111 25.2372 71.4731 25.0076 71.5846 24.7264C71.6961 24.4453 71.7514 24.1231 71.7514 23.761C71.7514 23.3988 71.6961 23.0748 71.5866 22.7984C71.476 22.522 71.313 22.2943 71.0977 22.1141C70.9337 21.9769 70.726 21.8787 70.4734 21.8206C70.2209 21.7625 69.7805 21.7339 69.1515 21.7339H68.757V25.7852Z" fill="white"/>
<path d="M78.7424 23.7744C78.7424 24.147 78.6738 24.4977 78.5356 24.8275C78.3984 25.1572 78.1973 25.4498 77.9342 25.7062C77.6703 25.9625 77.3672 26.1598 77.025 26.299C76.6819 26.4381 76.3265 26.5067 75.9586 26.5067C75.5907 26.5067 75.2362 26.4372 74.8959 26.299C74.5557 26.1598 74.2536 25.9625 73.9896 25.7062C73.7237 25.4479 73.5217 25.1534 73.3825 24.8246C73.2434 24.4949 73.1738 24.1451 73.1738 23.7753C73.1738 23.4055 73.2434 23.051 73.3825 22.7203C73.5217 22.3896 73.7237 22.0951 73.9896 21.8359C74.2507 21.5824 74.5519 21.387 74.894 21.2488C75.2362 21.1116 75.5907 21.043 75.9586 21.043C76.3265 21.043 76.6848 21.1116 77.0279 21.2488C77.371 21.3861 77.6731 21.5824 77.9342 21.8359C78.1973 22.0923 78.3984 22.3858 78.5356 22.7165C78.6729 23.0472 78.7424 23.3998 78.7424 23.7753V23.7744ZM75.9586 25.9225C76.2436 25.9225 76.5142 25.8682 76.7725 25.7605C77.0298 25.6528 77.2623 25.4956 77.4682 25.2897C77.6721 25.0858 77.8275 24.8542 77.9342 24.5959C78.041 24.3376 78.0943 24.0631 78.0943 23.7744C78.0943 23.4856 78.04 23.2054 77.9323 22.9424C77.8246 22.6793 77.6693 22.4468 77.4682 22.2447C77.2642 22.0408 77.0336 21.8855 76.7753 21.7787C76.518 21.672 76.2455 21.6186 75.9586 21.6186C75.6717 21.6186 75.3944 21.672 75.1361 21.7787C74.8778 21.8855 74.6482 22.0408 74.449 22.2447C74.245 22.4506 74.0897 22.6851 73.983 22.9452C73.8762 23.2064 73.8228 23.4827 73.8228 23.7744C73.8228 24.066 73.8753 24.3367 73.981 24.5921C74.0868 24.8484 74.2431 25.081 74.449 25.2897C74.6577 25.4984 74.8902 25.6557 75.1447 25.7624C75.4001 25.8691 75.6708 25.9225 75.9586 25.9225Z" fill="white"/>
<path d="M79.0762 21.1599H79.7452L81.0651 24.9911L82.4414 20.9531L83.8328 24.9911L85.1594 21.1599H85.8284L83.8118 26.5703L82.449 22.5437L81.0937 26.5703L79.0771 21.1599H79.0762Z" fill="white"/>
<path d="M86.4043 26.3673V20.9531L90.2136 25.115V21.159H90.8045V26.5694L86.9942 22.4532V26.3664H86.4043V26.3673Z" fill="white"/>
<path d="M92.0498 26.3685V21.1602H92.6683V25.7776H94.6354V26.3685H92.0498Z" fill="white"/>
<path d="M100.442 23.7744C100.442 24.147 100.373 24.4977 100.235 24.8275C100.098 25.1572 99.8965 25.4498 99.6335 25.7062C99.3695 25.9625 99.0664 26.1598 98.7243 26.299C98.3812 26.4381 98.0257 26.5067 97.6578 26.5067C97.2899 26.5067 96.9354 26.4372 96.5952 26.299C96.255 26.1598 95.9528 25.9625 95.6889 25.7062C95.423 25.4479 95.2209 25.1534 95.0818 24.8246C94.9426 24.4949 94.873 24.1451 94.873 23.7753C94.873 23.4055 94.9426 23.051 95.0818 22.7203C95.2209 22.3896 95.423 22.0951 95.6889 21.8359C95.95 21.5824 96.2511 21.387 96.5933 21.2488C96.9354 21.1116 97.2899 21.043 97.6578 21.043C98.0257 21.043 98.384 21.1116 98.7271 21.2488C99.0702 21.3861 99.3723 21.5824 99.6335 21.8359C99.8965 22.0923 100.098 22.3858 100.235 22.7165C100.372 23.0472 100.442 23.3998 100.442 23.7753V23.7744ZM97.6578 25.9225C97.9428 25.9225 98.2134 25.8682 98.4717 25.7605C98.729 25.6528 98.9616 25.4956 99.1674 25.2897C99.3714 25.0858 99.5267 24.8542 99.6335 24.5959C99.7402 24.3376 99.7936 24.0631 99.7936 23.7744C99.7936 23.4856 99.7392 23.2054 99.6316 22.9424C99.5239 22.6793 99.3685 22.4468 99.1674 22.2447C98.9635 22.0408 98.7329 21.8855 98.4746 21.7787C98.2173 21.672 97.9447 21.6186 97.6578 21.6186C97.371 21.6186 97.0936 21.672 96.8353 21.7787C96.5771 21.8855 96.3474 22.0408 96.1482 22.2447C95.9442 22.4506 95.7889 22.6851 95.6822 22.9452C95.5754 23.2064 95.5221 23.4827 95.5221 23.7744C95.5221 24.066 95.5745 24.3367 95.6803 24.5921C95.7861 24.8484 95.9423 25.081 96.1482 25.2897C96.3569 25.4984 96.5895 25.6557 96.8439 25.7624C97.0993 25.8691 97.37 25.9225 97.6578 25.9225Z" fill="white"/>
<path d="M102.971 20.9531L105.34 26.3673H104.668L103.993 24.77H101.958L101.282 26.3673H100.61L102.972 20.9531H102.971ZM102.971 22.3226L102.142 24.2402H103.799L102.97 22.3226H102.971Z" fill="white"/>
<path d="M105.877 26.3685V21.1602H106.877C107.616 21.1602 108.138 21.1973 108.44 21.2726C108.742 21.347 109.007 21.4728 109.234 21.6481C109.533 21.8787 109.76 22.1723 109.914 22.5306C110.068 22.889 110.146 23.3016 110.146 23.7686C110.146 24.2356 110.069 24.6445 109.916 25.0009C109.763 25.3583 109.536 25.6518 109.234 25.8815C109.007 26.0569 108.747 26.1827 108.457 26.257C108.166 26.3313 107.713 26.3685 107.1 26.3685H105.876H105.877ZM106.503 25.7852H106.898C107.538 25.7852 107.981 25.7576 108.228 25.7014C108.475 25.6451 108.68 25.5498 108.844 25.4145C109.057 25.2372 109.219 25.0076 109.331 24.7264C109.442 24.4453 109.498 24.1231 109.498 23.761C109.498 23.3988 109.442 23.0748 109.333 22.7984C109.222 22.522 109.059 22.2943 108.844 22.1141C108.68 21.9769 108.472 21.8787 108.22 21.8206C107.967 21.7625 107.527 21.7339 106.898 21.7339H106.503V25.7852Z" fill="white"/>
<path d="M118.637 23.7744C118.637 24.147 118.568 24.4977 118.43 24.8275C118.293 25.1572 118.092 25.4498 117.829 25.7062C117.565 25.9625 117.262 26.1598 116.92 26.299C116.577 26.4381 116.221 26.5067 115.853 26.5067C115.485 26.5067 115.131 26.4372 114.791 26.299C114.45 26.1598 114.148 25.9625 113.884 25.7062C113.618 25.4479 113.416 25.1534 113.277 24.8246C113.138 24.4949 113.068 24.1451 113.068 23.7753C113.068 23.4055 113.138 23.051 113.277 22.7203C113.416 22.3896 113.618 22.0951 113.884 21.8359C114.145 21.5824 114.446 21.387 114.789 21.2488C115.131 21.1116 115.485 21.043 115.853 21.043C116.221 21.043 116.579 21.1116 116.922 21.2488C117.266 21.3861 117.568 21.5824 117.829 21.8359C118.092 22.0923 118.293 22.3858 118.43 22.7165C118.567 23.0472 118.637 23.3998 118.637 23.7753V23.7744ZM115.853 25.9225C116.138 25.9225 116.409 25.8682 116.667 25.7605C116.924 25.6528 117.157 25.4956 117.363 25.2897C117.567 25.0858 117.722 24.8542 117.829 24.5959C117.936 24.3376 117.989 24.0631 117.989 23.7744C117.989 23.4856 117.935 23.2054 117.827 22.9424C117.719 22.6793 117.564 22.4468 117.363 22.2447C117.159 22.0408 116.928 21.8855 116.67 21.7787C116.413 21.672 116.14 21.6186 115.853 21.6186C115.566 21.6186 115.289 21.672 115.031 21.7787C114.772 21.8855 114.543 22.0408 114.344 22.2447C114.14 22.4506 113.984 22.6851 113.877 22.9452C113.771 23.2064 113.717 23.4827 113.717 23.7744C113.717 24.066 113.77 24.3367 113.876 24.5921C113.981 24.8484 114.138 25.081 114.344 25.2897C114.552 25.4984 114.785 25.6557 115.039 25.7624C115.295 25.8691 115.565 25.9225 115.853 25.9225Z" fill="white"/>
<path d="M119.647 26.3673V20.9531L123.457 25.115V21.159H124.048V26.5694L120.237 22.4532V26.3664H119.647V26.3673Z" fill="white"/>
<path d="M128.351 26.3685V21.751H126.879V21.1602H130.443V21.751H128.977V26.3685H128.351Z" fill="white"/>
<path d="M131.134 26.3685V21.1602H131.752V23.1625H134.52V21.1602H135.15V26.3685H134.52V23.7543H131.752V26.3685H131.134Z" fill="white"/>
<path d="M136.395 26.3685V21.1602H139.14V21.7263H137.013V23.2206H139.14V23.7972H137.013V25.7929H139.14V26.3695H136.395V26.3685Z" fill="white"/>
<path d="M67.4102 44.5754L72.7052 30.6562H76.1095L81.4808 44.5754H78.0966L76.9653 41.619H71.5749L70.6057 44.5754H67.4111H67.4102ZM76.2706 39.2793L74.7114 34.7819C74.6666 34.6485 74.6094 34.4207 74.5398 34.0977C74.4703 33.7746 74.3969 33.3781 74.3216 32.9092C74.2396 33.3591 74.1596 33.7631 74.0843 34.1215C74.008 34.4798 73.9509 34.719 73.9127 34.8391L72.4108 39.2793H76.2706Z" fill="white"/>
<path d="M82.707 48.8146V35.2471H85.3031V36.7873C85.6576 36.1659 86.0941 35.7017 86.6107 35.3949C87.1272 35.087 87.7276 34.9336 88.4119 34.9336C89.7366 34.9336 90.7726 35.372 91.5207 36.2507C92.2689 37.1284 92.6424 38.3531 92.6424 39.9256C92.6424 41.4981 92.2651 42.6561 91.5112 43.5719C90.7573 44.4878 89.7652 44.9452 88.5358 44.9452C87.7944 44.9452 87.1653 44.8071 86.6488 44.5316C86.1323 44.2562 85.6901 43.8235 85.3222 43.2336C85.3536 43.468 85.3775 43.7235 85.3937 43.9989C85.4099 44.2743 85.4175 44.5898 85.4175 44.9452V48.8146H82.708H82.707ZM85.1792 39.897C85.1792 40.7404 85.387 41.3961 85.8016 41.865C86.2171 42.3339 86.7946 42.5684 87.5361 42.5684C88.2775 42.5684 88.856 42.3339 89.2716 41.865C89.6861 41.3961 89.8939 40.7404 89.8939 39.897C89.8939 39.0536 89.6833 38.3903 89.262 37.9052C88.8408 37.4201 88.2594 37.178 87.518 37.178C86.7765 37.178 86.2323 37.422 85.8111 37.9099C85.3898 38.3979 85.1792 39.0602 85.1792 39.897Z" fill="white"/>
<path d="M94.7051 48.8146V35.2471H97.3012V36.7873C97.6557 36.1659 98.0922 35.7017 98.6087 35.3949C99.1253 35.087 99.7257 34.9336 100.41 34.9336C101.735 34.9336 102.771 35.372 103.519 36.2507C104.267 37.1284 104.64 38.3531 104.64 39.9256C104.64 41.4981 104.263 42.6561 103.509 43.5719C102.755 44.4878 101.763 44.9452 100.534 44.9452C99.7924 44.9452 99.1634 44.8071 98.6468 44.5316C98.1303 44.2562 97.6881 43.8235 97.3202 43.2336C97.3517 43.468 97.3755 43.7235 97.3917 43.9989C97.4079 44.2743 97.4155 44.5898 97.4155 44.9452V48.8146H94.706H94.7051ZM97.1773 39.897C97.1773 40.7404 97.385 41.3961 97.7996 41.865C98.2151 42.3339 98.7926 42.5684 99.5341 42.5684C100.276 42.5684 100.854 42.3339 101.27 41.865C101.684 41.3961 101.892 40.7404 101.892 39.897C101.892 39.0536 101.681 38.3903 101.26 37.9052C100.839 37.4201 100.257 37.178 99.516 37.178C98.7745 37.178 98.2304 37.422 97.8091 37.9099C97.3879 38.3979 97.1773 39.0602 97.1773 39.897Z" fill="white"/>
<path d="M112.027 42.8071L113.682 40.9344C113.891 41.4481 114.227 41.8522 114.69 42.1466C115.152 42.4411 115.673 42.5889 116.249 42.5889C116.946 42.5889 117.498 42.424 117.904 42.0942C118.309 41.7645 118.512 41.3213 118.512 40.7628C118.512 40.1033 117.837 39.4476 116.487 38.7948C116.049 38.5851 115.704 38.4145 115.451 38.2811C114.234 37.6474 113.39 37.0279 112.921 36.4227C112.452 35.8175 112.218 35.0961 112.218 34.2603C112.218 33.1128 112.673 32.1703 113.582 31.4316C114.491 30.693 115.672 30.3242 117.123 30.3242C117.966 30.3242 118.694 30.4719 119.305 30.7664C119.917 31.0609 120.457 31.5222 120.926 32.1502L119.167 33.8333C118.957 33.4283 118.68 33.1252 118.335 32.9251C117.989 32.7249 117.572 32.6258 117.084 32.6258C116.494 32.6258 116.02 32.7735 115.658 33.068C115.297 33.3625 115.116 33.7447 115.116 34.2136C115.116 34.9484 115.833 35.6202 117.265 36.2292C117.55 36.3493 117.769 36.4446 117.921 36.5142C119.1 37.0536 119.973 37.6617 120.54 38.3393C121.107 39.0178 121.391 39.7907 121.391 40.659C121.391 41.9646 120.946 43.0063 120.056 43.7821C119.166 44.5588 117.969 44.9467 116.467 44.9467C115.402 44.9467 114.489 44.7627 113.728 44.3949C112.968 44.027 112.401 43.498 112.026 42.8071H112.027Z" fill="white"/>
<path d="M123.921 44.5751V37.3682H122.618V35.2477H123.921V32.1484H126.63V35.2477H127.932V37.3682H126.63V44.5751H123.921Z" fill="white"/>
<path d="M139.419 39.9457C139.419 41.3781 138.929 42.5703 137.95 43.5205C136.97 44.4716 135.731 44.9462 134.229 44.9462C132.727 44.9462 131.465 44.4707 130.482 43.5205C129.5 42.5694 129.009 41.3781 129.009 39.9457C129.009 38.5132 129.503 37.3286 130.492 36.3708C131.481 35.414 132.726 34.9355 134.229 34.9355C135.732 34.9355 136.979 35.4073 137.955 36.3518C138.931 37.2962 139.419 38.4942 139.419 39.9457ZM136.662 39.9266C136.662 39.1661 136.44 38.559 135.996 38.1063C135.552 37.6527 134.957 37.4268 134.209 37.4268C133.46 37.4268 132.868 37.6517 132.431 38.1015C131.994 38.5514 131.775 39.1604 131.775 39.9266C131.775 40.6928 131.994 41.2952 132.431 41.7517C132.869 42.2082 133.461 42.4359 134.209 42.4359C134.956 42.4359 135.545 42.2082 135.992 41.7517C136.439 41.2952 136.662 40.6871 136.662 39.9266Z" fill="white"/>
<path d="M144.078 37.645C144.351 36.7387 144.742 36.0601 145.252 35.6103C145.762 35.1605 146.395 34.9355 147.149 34.9355C147.32 34.9355 147.601 34.967 147.995 35.0309C148.071 35.0432 148.128 35.0528 148.167 35.0594L147.758 37.9691C147.555 37.8861 147.35 37.8252 147.144 37.7842C146.938 37.7432 146.721 37.7222 146.493 37.7222C145.669 37.7222 145.076 37.9328 144.715 38.3541C144.353 38.7753 144.172 39.4806 144.172 40.4698V44.5774H141.463V35.251H144.134L144.077 37.6469L144.078 37.645Z" fill="white"/>
<path d="M158.499 40.5822H151.492C151.6 41.2541 151.844 41.7564 152.224 42.089C152.605 42.4216 153.121 42.5884 153.774 42.5884C154.269 42.5884 154.695 42.4931 155.053 42.3034C155.411 42.1128 155.711 41.825 155.952 41.4381L158.138 42.5312C157.631 43.3489 157.016 43.956 156.294 44.3515C155.571 44.747 154.713 44.9452 153.718 44.9452C152.209 44.9452 151.015 44.4954 150.133 43.5948C149.252 42.6951 148.812 41.4848 148.812 39.9628C148.812 38.4408 149.273 37.2943 150.195 36.3498C151.118 35.4053 152.298 34.9336 153.737 34.9336C155.176 34.9336 156.393 35.3758 157.254 36.2602C158.116 37.1446 158.548 38.3502 158.548 39.8779C158.548 39.9599 158.544 40.0504 158.538 40.1486C158.532 40.2468 158.519 40.3907 158.5 40.5813L158.499 40.5822ZM155.818 38.9468C155.742 38.3579 155.529 37.9128 155.176 37.6116C154.824 37.3105 154.344 37.1599 153.736 37.1599C153.128 37.1599 152.641 37.3105 152.277 37.6116C151.913 37.9128 151.679 38.3579 151.578 38.9468H155.818Z" fill="white"/>
<path d="M59.4431 27.1261C54.737 29.8118 55.002 37.275 60.3952 39.6948C59.8196 40.8832 59.3002 42.1003 58.6569 43.2477C57.8687 44.6554 56.8918 45.9324 55.6519 46.9932C54.7113 47.7975 53.6715 48.071 52.4754 47.7203C51.4738 47.4268 50.4674 47.1495 49.4686 46.8492C48.4489 46.5433 47.4425 46.6034 46.438 46.9141C45.5478 47.1895 44.651 47.4459 43.7637 47.7337C42.7364 48.0672 41.7681 47.9014 40.958 47.2457C40.2232 46.651 39.537 45.9696 38.9423 45.2348C36.7036 42.471 35.3742 39.2859 34.8671 35.7797C34.5574 33.6363 34.5841 31.4825 35.4028 29.4277C36.4073 26.9031 38.0512 25.0276 40.7903 24.3099C42.2227 23.9344 43.6017 24.1612 44.9674 24.6263C45.6202 24.8484 46.295 25.0171 46.9316 25.2792C47.5197 25.5212 48.041 25.3983 48.609 25.2277C49.9976 24.8103 51.3852 24.3585 52.8043 24.0764C55.1745 23.6047 58.3052 25.0847 59.4441 27.1252L59.4431 27.1261Z" fill="#D1D1D1"/>
<path d="M53.7069 16.5128C54.2644 19.8636 50.6905 24.1999 47.6122 23.569C46.845 20.6327 50.6257 16.2326 53.7069 16.5128Z" fill="#D1D1D1"/>
</svg>
